<?xml version="1.0" encoding="utf-8"?>
<!-- Generator: Adobe Illustrator 25.3.1, SVG Export Plug-In . SVG Version: 6.00 Build 0)  -->
<svg version="1.1" id="Layer_1" xmlns="http://www.w3.org/2000/svg" xmlns:xlink="http://www.w3.org/1999/xlink" x="0px" y="0px"
	 viewBox="0 0 2048 2048" style="enable-background:new 0 0 2048 2048;" xml:space="preserve">
<style type="text/css">
	.st0{fill:#F48850;}
	.st1{fill:#7B5DCE;}
	.st2{fill:#A47EF7;}
	.st3{fill:#FDB948;}
	.st4{fill:#F4F8FB;}
	.st5{fill:#D7DEE8;}
	.st6{opacity:0.5;}
	.st7{fill:#FFFFFF;}
	.st8{fill:#3C468E;}
	.st9{fill:#363B6D;}
	.st10{fill:#434757;}
	.st11{fill:#D36B3D;}
	.st12{fill:#27264F;}
	.st13{fill:#2A2E3D;}
	.st14{fill:#F07454;}
	.st15{fill:#97285C;}
	.st16{fill:#E85BA8;}
	.st17{fill:#FA71B7;}
	.st18{fill:#F8AA9B;}
	.st19{fill:#787B8A;}
	.st20{fill:#C9E2E8;}
</style>
<g>
	<g>
		<path class="st0" d="M1684.41,712.12c-21.83,35.66-49.61,70.49-88.64,85.48c-20.98,8.06-43.83,9.8-65.41,16.09
			c-44.56,12.99-82.74,46.33-101.61,88.73c-10.71,24.06-16.48,52.19-36.91,68.82c-18.86,15.35-46.98,16.41-68.81,5.71
			c-21.83-10.7-37.54-31.62-45.62-54.55c-10.22-28.99-8.19-63.9,11.78-87.27c23.77-27.81,66.99-34.12,87.96-64.09
			c15.76-22.52,14.7-52.69,9.19-79.61c-5.51-26.93-14.87-53.59-13.59-81.04c1.71-36.45,23.75-71.28,55.97-88.42
			c32.21-17.14,73.42-15.97,104.6,2.97c5.29,3.21,10.37,6.92,16.23,8.91c16.49,5.59,34.4-3.88,47.12-15.78
			c12.72-11.9,23.08-26.68,38.08-35.52c21.86-12.89,51.94-9.86,70.79,7.13c18.85,16.99,24.99,46.58,14.45,69.66
			c-4.71,10.31-16.19,18.79-17.46,30.15c-1.23,10.98,9,26.66,9.57,38.72C1713.47,657.65,1699.4,687.63,1684.41,712.12z"/>
	</g>
	<g>
		<path class="st1" d="M1697.08,1072.52c9.81-57.85-18.99-121.2,6.54-174.03c15.19-31.42,47.99-54.18,54.22-88.52
			c7.09-39.05-24.25-75.55-59.5-93.79c-32.39-16.76-70.51-23.66-106.03-15.41c-35.52,8.25-67.78,32.61-82.05,66.17
			c-4.53,10.67-7.24,22.02-11.47,32.81c-15.08,38.5-47.95,66.77-71.67,100.64c-56.01,79.99-55.95,187.39-2.63,268.46
			c48.94,74.4,115.02,72.24,185.63,23.74C1651.15,1164.44,1688.52,1123.04,1697.08,1072.52z"/>
	</g>
	<g>
		<path class="st2" d="M499.55,509.66c31.63-41.87,81.7-69.27,134.02-73.32c9.73-0.75,19.71-0.71,29.02,2.22
			c28.81,9.09,42.34,42.09,46.85,71.96c1.36,9.03,2.23,18.35,0.01,27.21c-1.73,6.9-5.26,13.19-8.76,19.39
			c-8.97,15.93-17.95,31.85-26.92,47.78C641.91,661.42,558.22,789.5,478,724.6C426.85,683.22,468.15,551.23,499.55,509.66z"/>
	</g>
	<g>
		<path class="st3" d="M1113.72,441.59c16.23-5.35,34.71-5.89,48.15-16.45c10.25-8.05,15.7-20.55,22.37-31.75
			c14.16-23.76,35.94-43.52,62.18-52.27c26.24-8.75,56.89-5.51,79,11.11c14.5,10.9,25.06,26.95,41.13,35.35
			c12.05,6.3,26.18,7.71,38.26,13.94c24.89,12.83,35.39,42.39,42.42,69.5c4.33,16.7,8.19,34.2,4.57,51.07
			c-7.45,34.67-42.73,54.83-74.55,70.5c-78.38,38.61-190.41,90.9-274.15,34.66C1043.86,587.46,1038.09,466.5,1113.72,441.59z"/>
	</g>
	<g>
		<path class="st1" d="M634.07,1068.32c-30.38-28.73-66.29-55.11-107.88-59.39c-22.36-2.3-44.87,1.98-67.34,1.54
			c-46.4-0.91-91.96-23.13-121.24-59.14c-16.62-20.43-29.53-46.08-53.59-56.8c-22.21-9.9-49.64-3.58-67.92,12.44
			c-18.28,16.03-27.98,40.32-29.8,64.57c-2.3,30.66,8.76,63.82,34.14,81.17c30.2,20.64,73.57,15.46,101.64,38.91
			c21.09,17.62,27.94,47.02,29.65,74.45s-0.37,55.61,8.03,81.78c11.16,34.74,41.53,62.61,77.1,70.75s75.04-3.74,100.2-30.17
			c4.27-4.48,8.2-9.39,13.34-12.84c14.46-9.7,34.22-5.23,49.6,2.93c15.38,8.17,29.24,19.73,46.03,24.35
			c24.47,6.73,52.71-4.04,66.48-25.36c13.77-21.32,11.97-51.49-4.23-71.02c-7.24-8.72-20.54-13.92-24.73-24.55
			c-4.05-10.28,1.73-28.08-0.87-39.87C676.34,1113.31,654.93,1088.04,634.07,1068.32z"/>
	</g>
	<g>
		<path class="st3" d="M384.32,1036.63c-10.49-44.73-7.16-95.59-35.96-131.38c-26.54-32.97-72-42.41-108.44-63.93
			c-55.25-32.62-89.86-97.37-86.29-161.44c3.57-64.07,45.17-124.56,103.71-150.84c11.15-5.01,23.24-8.9,35.42-7.84
			c19.08,1.65,35.21,15.19,46.48,30.67c11.27,15.48,18.97,33.28,29.7,49.14c7.76,11.47,19.04,22.78,32.88,22.34
			c12.77-0.41,22.82-10.62,34.5-15.8c26.4-11.72,58.55,4.79,73.71,29.36c15.17,24.58,17.42,54.76,18.37,83.63
			c0.95,28.87,1.21,58.74,13.21,85.01c20.01,43.81,68.62,69,89.55,112.38c28.41,58.87,1.1,183.73-60.05,218.54
			C490.45,1182.39,403.08,1116.59,384.32,1036.63z"/>
	</g>
	<path class="st4" d="M1223.9,1257.73c111.24-5.51,246.49-12.8,332.63,13.11c51.96,15.63,37.28,57.57,74.07,79.69
		c42.95,25.82,135.2,24.14,195.76,41.58c50.27,14.48,75.96,42.96,66.23,73.43s-54.59,62.03-115.66,81.36
		c-109.84,34.76-242.22,26.13-360.61,51.09c-78.91,16.63-145.06,46.77-219.11,69.23c-108.7,32.97-236.04,48.82-348.13,43.32
		c-38.95-1.91-76.55-6.39-106.55-15.68c-56.7-17.56-81.16-50.41-136.18-68.91c-69.92-23.51-179.46-20.73-247.4-45.28
		c-78.38-28.33-78.91-88.73-20.99-138.45s163.06-89.03,272.64-115.53C807.75,1279.01,1019.56,1267.85,1223.9,1257.73z"/>
	<path class="st5" d="M1256.76,1371.26c-13,5.77-27.65,13.6-30.19,27.59c-1.7,9.36,2.92,18.97,9.69,25.65
		c6.78,6.68,15.49,10.96,24.04,15.13c62.59,30.52,125.47,61.15,191.85,82.2c9.68,3.07,19.8,5.96,29.86,4.53
		c8.94-1.28,17.01-5.87,24.81-10.44c45.91-26.87,90.7-55.66,134.21-86.25c3.06-2.15,6.22-4.43,8.01-7.72
		c3.71-6.85,0.22-15.3-3.89-21.92c-19.82-31.92-53.79-53.01-89.53-64.61c-47.38-15.38-109.55-24.42-159.45-19.37
		C1349.17,1320.79,1299.37,1352.36,1256.76,1371.26z"/>
	
		<ellipse transform="matrix(0.9913 -0.1317 0.1317 0.9913 -166.1044 131.5913)" class="st5" cx="911.45" cy="1321.14" rx="475.64" ry="61.14"/>
	<path class="st5" d="M946.25,1353.67c-12.85,8.36-25.09,18.79-31.24,32.83c-6.14,14.04-4.65,32.31,6.87,42.41
		c7.28,6.39,17.33,8.68,27,9.18c42.17,2.15,84.41-25.28,124.73-12.75c9.43,2.93,18.13,7.95,27.63,10.63
		c15.93,4.51,32.91,2.18,49.23-0.61c13.97-2.39,28.28-5.24,40.2-12.9c11.93-7.66,21.08-21.26,19.45-35.34
		c-1.51-13.07-11.6-23.45-22.12-31.36c-39.24-29.48-78.42-28.97-124.61-27.63C1019.19,1329.42,986.44,1327.53,946.25,1353.67z"/>
	<g class="st6">
		<g>
			<path class="st7" d="M533.81,1006.02c-24.33,0-47.1-15.52-60.33-33.08c-16.57-21.98-23.95-49.67-30.09-76.15l-1.19-5.14
				c-5.64-24.49-11.48-49.82-24.45-71.37c-12.97-21.54-32.91-38.68-56.16-48.26c-7.81-3.22-16.13-5.65-24.17-8
				c-9.45-2.76-19.22-5.61-28.38-9.79c-45.15-20.6-71.1-76.27-57.84-124.1c0.29-1.06,1.4-1.69,2.46-1.39
				c1.06,0.29,1.69,1.4,1.39,2.46c-12.76,46.01,12.21,99.57,55.65,119.39c8.9,4.06,18.53,6.87,27.85,9.59
				c8.14,2.38,16.56,4.84,24.58,8.14c24.03,9.9,44.65,27.62,58.06,49.89c13.3,22.09,19.21,47.73,24.92,72.53l1.19,5.14
				c6.04,26.06,13.29,53.29,29.39,74.65c14.7,19.5,41.65,36.39,68.71,30.18c1.08-0.25,2.15,0.42,2.4,1.5
				c0.25,1.08-0.43,2.15-1.5,2.4C542.1,1005.57,537.93,1006.02,533.81,1006.02z"/>
		</g>
		<g>
			<path class="st7" d="M381.01,455.81c-0.22,0-0.45-0.04-0.67-0.12l-3.43-1.22c-1.04-0.37-1.58-1.52-1.21-2.56
				c0.37-1.04,1.52-1.58,2.56-1.21l3.43,1.22c1.04,0.37,1.58,1.52,1.21,2.56C382.6,455.3,381.83,455.81,381.01,455.81z"/>
		</g>
		<g>
			<path class="st7" d="M425.99,828.96c-0.77,0-1.5-0.44-1.83-1.19c-9.42-21.26-8.87-45.5-7.1-66.41c0.36-4.25,0.79-8.58,1.2-12.76
				c1.72-17.5,3.49-35.6,1.07-53.11c-1.19-8.59-3.86-13.88-8.18-16.15c-0.98-0.51-1.35-1.72-0.84-2.7c0.52-0.98,1.73-1.35,2.7-0.84
				c5.54,2.92,8.9,9.18,10.28,19.14c2.49,17.98,0.69,36.32-1.06,54.05c-0.41,4.17-0.83,8.48-1.19,12.71
				c-1.73,20.4-2.28,44.02,6.77,64.46c0.45,1.01-0.01,2.19-1.02,2.64C426.54,828.9,426.26,828.96,425.99,828.96z"/>
		</g>
		<g>
			<path class="st7" d="M452.46,928.01c-0.78,0-1.52-0.46-1.84-1.22c-5.51-12.92-16.43-22.43-25.34-29.28
				c-24.24-18.63-52.89-31.7-82.84-37.8c-0.95-0.19-1.9-0.38-2.85-0.57c-6.74-1.33-13.71-2.7-19.85-6.24
				c-0.96-0.55-1.28-1.77-0.73-2.73c0.55-0.96,1.77-1.29,2.73-0.73c5.56,3.21,12.2,4.51,18.62,5.78c0.96,0.19,1.92,0.38,2.88,0.57
				c30.55,6.22,59.76,19.55,84.48,38.55c9.29,7.14,20.71,17.11,26.58,30.88c0.43,1.02-0.04,2.19-1.06,2.62
				C452.99,927.96,452.72,928.01,452.46,928.01z"/>
		</g>
		<g>
			<path class="st7" d="M327.06,761.62c-0.53,0-1.05-0.21-1.44-0.61c-14.59-15.18-20.17-34.78-22.28-48.54
				c-2.82-18.38-1.33-37.31,0.5-53.4l0.11-1.01c0.82-7.18,1.67-14.6,0.05-21.51c-0.25-1.08,0.42-2.15,1.49-2.4
				c1.07-0.25,2.15,0.42,2.4,1.49c1.77,7.58,0.88,15.35,0.03,22.87l-0.11,1c-1.8,15.83-3.26,34.43-0.52,52.35
				c2.02,13.2,7.34,31.95,21.21,46.38c0.77,0.8,0.74,2.06-0.06,2.83C328.06,761.43,327.56,761.62,327.06,761.62z"/>
		</g>
		<g>
			<path class="st7" d="M479.01,1219.82c-0.02,0-0.04,0-0.07,0c-14.07-0.45-28.16-7.76-43.1-22.35
				c-14-13.67-25.53-29.48-34.28-46.99c-7.54-15.1-13.01-31.54-18.31-47.44c-8.76-26.32-17.81-53.53-36.38-74.13
				c-21.76-24.15-56.61-36.73-88.78-32.06c-1.09,0.15-2.11-0.6-2.27-1.69c-0.16-1.09,0.6-2.11,1.69-2.27
				c33.96-4.94,69.35,7.84,92.32,33.34c19.12,21.22,28.31,48.83,37.2,75.54c5.25,15.77,10.67,32.07,18.09,46.92
				c8.55,17.11,19.82,32.56,33.5,45.92c14.19,13.86,27.41,20.79,40.43,21.21c1.1,0.04,1.97,0.96,1.93,2.06
				C480.98,1218.96,480.09,1219.82,479.01,1219.82z"/>
		</g>
		<g>
			<path class="st7" d="M390.6,1125.79c-0.62,0-1.24-0.29-1.63-0.83c-17.84-24.88-44.84-43.59-74.39-51.64
				c-0.35,0.51-0.94,0.85-1.61,0.86c-1.24-0.01-2.32-0.85-2.65-2.11c-0.32-1.26,0.22-2.55,1.31-3.12c0.43-0.23,0.94-0.29,1.41-0.17
				c31.43,7.88,60.29,27.51,79.17,53.85c0.64,0.9,0.44,2.15-0.46,2.79C391.41,1125.67,391.01,1125.79,390.6,1125.79z"/>
		</g>
		<g>
			<path class="st7" d="M427.72,1188.63c-0.8,0-1.56-0.49-1.87-1.28c-5.82-15.04-6.58-32.71-2.2-51.11
				c0.08-0.32,0.17-0.72,0.19-1.01c-0.77-0.01-1.49-0.47-1.81-1.22c-0.43-1.02,0.05-2.19,1.07-2.62c0.81-0.34,1.72-0.32,2.55,0.07
				c0.93,0.43,1.68,1.28,1.99,2.26c0.41,1.3,0.12,2.54-0.1,3.45c-2.92,12.28-4.94,30.71,2.04,48.75c0.4,1.03-0.11,2.19-1.14,2.59
				C428.21,1188.58,427.96,1188.63,427.72,1188.63z"/>
		</g>
		<g>
			<path class="st7" d="M1300.14,504.86c-0.64,0-1.27-0.3-1.65-0.87c-5.02-7.34-13.03-13.58-24.48-19.08
				c-23.44-11.25-49.64-15.11-74.98-18.84l-18.62-2.74c-1.09-0.16-1.85-1.18-1.69-2.27c0.16-1.09,1.19-1.85,2.27-1.69l18.62,2.74
				c25.63,3.77,52.14,7.68,76.13,19.19c12.11,5.81,20.63,12.49,26.06,20.43c0.62,0.91,0.39,2.16-0.52,2.78
				C1300.92,504.74,1300.53,504.86,1300.14,504.86z"/>
		</g>
		<g>
			<path class="st7" d="M1285.79,493.66c-0.72,0-1.42-0.39-1.77-1.07c-5.04-9.63-9.71-19.13-11.54-29.62
				c-2.41-13.78,0.48-28.08,3.03-40.69c0.22-1.08,1.27-1.78,2.36-1.56c1.08,0.22,1.78,1.27,1.56,2.36
				c-2.6,12.86-5.28,26.17-3.01,39.21c1.73,9.92,6.26,19.12,11.14,28.46c0.51,0.98,0.13,2.19-0.85,2.7
				C1286.42,493.58,1286.1,493.66,1285.79,493.66z"/>
		</g>
		<g>
			<path class="st7" d="M1807.19,616.49c-0.7,0-1.4-0.19-2.03-0.57c-0.94-0.58-1.23-1.81-0.66-2.75c0.58-0.94,1.81-1.23,2.75-0.65
				c0-0.02,0.23-0.13,0.45-0.42s0.26-0.55,0.25-0.61c-0.82-0.74-0.87-1.97-0.13-2.79c0.74-0.82,2.02-0.86,2.84-0.12
				c1.62,1.46,1.72,3.95,0.24,5.92C1809.94,615.78,1808.55,616.49,1807.19,616.49z"/>
		</g>
		<g>
			<path class="st7" d="M1498.91,747.09c-0.28,0-0.57-0.06-0.84-0.19c-1-0.47-1.43-1.66-0.97-2.66
				c25.3-54.26,62.95-103.23,108.89-141.63c11.56-9.66,23.82-18.81,35.67-27.65l16.45-12.27c0.89-0.66,2.14-0.48,2.8,0.41
				c0.66,0.89,0.48,2.14-0.41,2.8l-16.45,12.27c-11.81,8.81-24.02,17.92-35.5,27.52c-45.49,38.02-82.78,86.51-107.83,140.25
				C1500.39,746.67,1499.66,747.09,1498.91,747.09z"/>
		</g>
		<g>
			<path class="st7" d="M1773.66,507.63c-0.13,0-0.26-0.01-0.39-0.04c-1.86-0.37-3.47-1.68-4.21-3.43
				c-0.43-1.02,0.04-2.19,1.06-2.62c1.02-0.43,2.19,0.04,2.62,1.06c0.22,0.53,0.75,0.96,1.31,1.07c1.08,0.22,1.79,1.27,1.57,2.35
				C1775.43,506.98,1774.6,507.63,1773.66,507.63z"/>
		</g>
		<g>
			<path class="st7" d="M1559.81,655.78c-0.19,0-0.39-0.03-0.58-0.09c-1.06-0.32-1.65-1.44-1.33-2.49
				c8.35-27.54,18.7-54.76,30.76-80.89l0.19-0.42c3.13-6.77,6.36-13.77,6.12-20.94c-0.04-1.1,0.83-2.03,1.93-2.07
				c1.1-0.02,2.03,0.83,2.07,1.93c0.27,8.12-3.17,15.56-6.49,22.75l-0.19,0.42c-11.99,25.96-22.27,53-30.57,80.37
				C1561.46,655.23,1560.67,655.78,1559.81,655.78z"/>
		</g>
		<g>
			<path class="st7" d="M1526.85,701.52c-0.64,0-1.27-0.31-1.66-0.88c-0.62-0.92-0.37-2.16,0.54-2.78
				c21.32-14.36,44.71-24.75,69.59-30.94c0.32-0.46,0.83-0.78,1.42-0.85l4.19-0.46c1.05-0.12,2.02,0.61,2.19,1.66
				c0.17,1.05-0.5,2.05-1.54,2.28c-26.04,5.79-51.5,16.72-73.62,31.62C1527.62,701.41,1527.23,701.52,1526.85,701.52z"/>
		</g>
		<g>
			<path class="st7" d="M1658.77,757.27c-13.51,7.6-26.6,16.22-38.91,25.63c-13.38,10.22-29.82,24.38-38.31,43.31
				c-5.82,12.98-8.1,28.15-6.98,47.09c0.12,2.34,0.31,4.74,0.56,7.2c0.14,1.54,0.31,3.11,0.5,4.71c0.97,8.1,2.35,16.31,3.7,24.25
				c2,11.85,4.07,24.11,4.82,36.36c1.83,30.11-4.23,60.64-18,90.75c-12.68,27.7-31.66,53.95-54.9,75.93
				c-0.39,0.36-0.88,0.54-1.38,0.54c-0.53,0-1.06-0.21-1.45-0.62c-0.76-0.81-0.72-2.07,0.08-2.83
				c48.31-45.68,75.1-106.81,71.66-163.52c-0.74-12.04-2.79-24.19-4.78-35.95c-1.35-7.98-2.74-16.24-3.72-24.44
				c-0.49-4.07-0.84-7.98-1.07-11.75c-0.36-5.94-0.4-11.53-0.1-16.81c0.67-12.32,3.12-22.98,7.41-32.55
				c8.85-19.75,25.78-34.34,39.53-44.85c12.46-9.52,25.71-18.25,39.38-25.93c0.96-0.54,2.18-0.2,2.72,0.76
				C1660.07,755.51,1659.73,756.73,1658.77,757.27z"/>
		</g>
		<g>
			<path class="st7" d="M1583.13,983.13c-0.14,0-0.28-0.01-0.42-0.05c-1.08-0.23-1.77-1.3-1.53-2.38
				c7.56-35.05,34.57-63.08,56.28-85.61l13.6-14.11c0.77-0.8,2.03-0.82,2.83-0.05c0.8,0.77,0.82,2.03,0.05,2.83l-13.6,14.11
				c-21.36,22.16-47.93,49.74-55.25,83.68C1584.88,982.48,1584.05,983.13,1583.13,983.13z"/>
		</g>
		<g>
			<path class="st7" d="M1575.13,880.5c-1.93-0.55-3.51-2.77-4.02-4.65c-0.18-0.64-0.35-1.28-0.52-1.92
				c-9.18-34.04-14.61-69.14-16.15-104.36c-0.05-1.11,0.81-2.04,1.91-2.09c1.08-0.06,2.04,0.81,2.09,1.91
				c1.29,29.52,5.34,58.95,12.05,87.73c1.26,5.42,2.62,10.81,4.08,16.18C1574.69,875.64,1574.88,878.04,1575.13,880.5z"/>
		</g>
	</g>
	<g>
		<path class="st8" d="M905.95,1080.5l-37.39,235.83c0,0,133.26,49.97,227.27-37.07l-40.78-214.56L905.95,1080.5z"/>
	</g>
	<path class="st9" d="M496.57,622.75l-5.68,575.89c-0.29,29.18,25.13,51.82,53.74,47.86l897.97-124.02
		c22.48-3.1,39.62-21.89,40.85-44.78l29.34-542.88c1.58-29.26-23.01-53.06-51.87-50.21L539.3,575.62
		C515.24,578,496.81,598.32,496.57,622.75z"/>
	<path class="st7" d="M1483.39,569.09l-0.38,5.93l-30.19,475.94c-1.44,22.71-18.68,41.26-41.22,44.36L586.87,1208.8
		c-29.02,4-54.78-18.8-54.34-48.09l7.42-499.82l0.2-13.64c0.36-24.36,18.98-44.55,43.22-46.89l847.68-81.91
		C1460.37,515.62,1485.25,539.7,1483.39,569.09z"/>
	<polygon class="st5" points="582.29,708.82 580.89,880.45 1058.25,829.7 1058.25,660.59 	"/>
	<polygon class="st5" points="580.89,901.64 578.51,1137.45 827.43,1100.73 823.78,877.71 	"/>
	<polygon class="st5" points="1087.84,727.63 1085.8,745.15 1425.25,702.04 1425.25,683.19 	"/>
	<polygon class="st5" points="1087.84,767.31 1085.8,784.82 1425.25,741.72 1425.25,722.86 	"/>
	<polygon class="st5" points="1087.84,806.99 1085.8,824.5 1425.25,781.39 1425.25,762.54 	"/>
	<polygon class="st5" points="1087.84,846.66 1085.8,864.18 1425.25,821.07 1425.25,802.21 	"/>
	<polygon class="st5" points="1087.84,886.34 1085.8,903.85 1425.25,860.75 1425.25,841.89 	"/>
	<polygon class="st5" points="1087.84,926.02 1085.8,943.53 1425.25,900.42 1425.25,881.57 	"/>
	<polygon class="st5" points="1087.84,965.69 1085.8,983.2 1425.25,940.1 1425.25,921.24 	"/>
	<polygon class="st5" points="1087.84,1005.37 1085.8,1022.88 1425.25,979.78 1425.25,960.92 	"/>
	<polygon class="st5" points="1087.84,1045.04 1085.8,1062.56 1425.25,1019.45 1425.25,1000.6 	"/>
	<polygon class="st5" points="847.74,872.91 846.87,958.38 1056.36,929.61 1056.47,849.32 	"/>
	<g>
		<path class="st10" d="M878.91,975.28c0.98-1.8,0.32-4.05-1.48-5.03l-0.36-0.2c-1.8-0.98-4.05-0.32-5.03,1.48l-22.82,41.9
			c-0.29,0.54-0.42,1.11-0.43,1.68l-1.33,6.59c-0.33,1.62,1.64,2.7,2.83,1.54l5.35-5.21l-0.13-0.07c0.22-0.23,0.43-0.49,0.59-0.79
			L878.91,975.28z"/>
		<path class="st3" d="M849.87,998.99c0.53-1.4,1.17-2.76,2.13-3.91c1.2-1.43,2.99-2.48,4.85-2.36c2.63,0.17,4.52,2.47,6.44,4.28
			c1.69,1.59,3.62,2.92,5.29,4.54c4.41,4.28,5.25,10.72-1.08,13.36c-4,1.67-9.95,1.86-13.77-0.43c-1.24-0.75-1.51-1.89-2.35-3.03
			c-0.8-1.1-1.8-2.04-2.39-3.29c-1.18-2.51-0.44-5.47,0.47-8.09C849.61,999.7,849.74,999.34,849.87,998.99z"/>
		<path class="st11" d="M1123.48,1044.88c0.73,1.24,1.47,2.56,1.45,4c-0.02,1.23-0.6,2.37-1.17,3.45
			c-8.43,15.95-18.4,31.08-29.73,45.11c-2.87,3.55-6.79,7.4-11.26,6.46c-2.54-0.53-4.53-2.56-5.89-4.77
			c-3.98-6.46-3.79-14.56-3.48-22.14c0.9-21.81,1.8-43.63,2.7-65.44c0.32-7.78,0.62-15.71-1.52-23.19c-2.41-8.4-1.73-14.77,5.82-5.5
			c5.4,6.64,10.63,13.43,15.68,20.34C1105.9,1016.62,1115.05,1030.54,1123.48,1044.88z"/>
		<g>
			<path class="st12" d="M983.67,883.35c0.95-1.04,1.97-1.03,3.15-1.53c1.08-0.45,2.01-1.41,2.7-2.33c0.95-1.26,1.63-2.7,2.38-4.09
				c1.03-1.89,2.29-3.76,4.16-4.83c1.38-0.78,2.98-1.07,4.56-1.22c2.97-0.29,6.35,0.65,9.17-0.28c2.2-0.72,4.08-2.08,5.81-3.6
				c3.48-3.06,6.49-6.99,10.9-8.77c4.11-1.65,8.93-0.99,12.78,1.18s6.8,5.73,8.84,9.66c2.63,5.06,4.05,11.06,8.41,14.74
				c5.99,5.07,15.74,4.14,21.07,9.91c4.6,4.97,3.91,12.76,2.3,19.34c-1.6,6.58-3.8,13.61-1.35,19.93
				c2.69,6.93,10.02,10.62,15.67,15.43c1.96,1.67,3.81,3.59,4.8,5.97c1.82,4.37,0.44,9.39-1.36,13.77c-1.6,3.89-3.78,7.91-7.58,9.71
				c-4.13,1.96-9.08,0.79-13.51,1.93c-5.19,1.34-8.98,5.61-13.21,8.9c-6.72,5.22-15.69,8.21-23.88,5.91
				c-6.2-1.74-11.39-6.41-14.36-12.13c-2.96-5.72-3.81-12.41-3.01-18.8c0.42-3.34,1.24-6.86-0.04-9.98
				c-2.08-5.02-8.35-6.43-13.67-7.53c-10.54-2.19-21.78-6.65-26.61-16.27c-2.94-5.84-2.96-13.02-0.23-18.96
				c1.94-4.22,5.28-8.33,4.5-12.91c-0.39-2.32-1.82-4.32-2.74-6.49C982.4,887.86,982.08,885.09,983.67,883.35z"/>
			<path class="st3" d="M1013.57,969.07c1.89,3.63,6.64,5.14,10.6,4.14c3.97-1.01,7.15-4.07,9.29-7.56
				c4.34-7.1,4.89-16.06,2.95-24.15c-1.38-5.74-4.41-11.65-9.87-13.88c-2.04-0.83-4.32-1.08-6.5-0.71
				c-7.98,1.37-11.27,9.08-9.19,16.32c0.7,2.42,1.77,4.74,2.19,7.22C1014.06,956.55,1010.51,963.19,1013.57,969.07z"/>
			<path class="st3" d="M989.59,902.66c0.16,2.94,1.1,5.84,0.88,8.77c-0.26,3.46-2.09,6.62-2.73,10.03
				c-0.51,2.69-0.25,5.5,0.47,8.14c1.98,7.22,7.62,13.3,14.63,15.93c7.01,2.62,15.21,1.76,21.57-2.19c2.76-1.71,5.26-4.09,6.25-7.18
				c0.66-2.05,0.6-4.28,1.25-6.33c1.22-3.84,4.64-6.47,7.25-9.54c2.61-3.07,4.46-7.73,2.11-11c-2.16-3.01-7.51-2.71-9.31,0.53
				c-1.5-6.7-3.91-13.46-8.7-18.38c-4.89-5.03-11.81-7.07-18.54-5.11c-1.48-3.3-8.25,1.94-9.93,3.61
				C991.45,893.25,989.32,897.9,989.59,902.66z"/>
			<path class="st13" d="M1004.99,900.56c2.69,1.23,5.66,1.67,8.49,2.51c2.83,0.85,5.69,2.24,7.26,4.75
				c1.55,2.48,1.61,5.69,3.21,8.14c0.71,1.08,2.06,2.04,3.22,1.46c0.43-0.21,0.74-0.6,1.01-0.99c1.17-1.72,1.72-3.81,2.93-5.51
				c2.07-2.9,5.9-4.48,7.14-7.82c0.65-1.76,0.44-3.71,0.06-5.55c-1.8-8.76-7.84-16.91-16.32-19.78c-3.85-1.3-7.99-1.49-12.06-1.29
				c-5.58,0.28-16.19,2.1-16.9,9.33C992.48,891.5,1000.4,898.46,1004.99,900.56z"/>
		</g>
		<g>
			<g>
				<path class="st12" d="M1059.71,1080.85c-2.35-1.52-4.96-2.6-7.67-3.32c-9.22-2.46-22.8-6.15-32.97-1.43
					c-10.83,5.03-12.04,22.7-15.3,33.1c-9.31,29.66-18.62,59.32-27.93,88.97c-5.86,18.66-11.76,37.57-12.69,57.11
					c-0.4,8.38,0.12,16.78,0.65,25.15c1.48,23.75,3.12,47.33,5.91,70.82c0.93,7.8,12.06,8.33,13.68,0.65
					c2-9.46,4.07-18.91,6.22-28.34c4.1-18.01,9.19-36.01,11.14-54.49c0.74-7.04,1.38-14.13,3.17-20.98
					c3.24-12.42,10.11-23.53,16.56-34.63c13.11-22.52,24.9-45.8,35.31-69.69C1063.52,1126.03,1083,1095.96,1059.71,1080.85z"/>
			</g>
		</g>
		<g>
			<path class="st12" d="M1063.13,1276.97c-1.58-4.83-3.18-9.66-4.76-14.49c-2.55-7.8-5.04-15.64-6.47-23.72
				c-1.21-6.85-1.66-13.82-2.84-20.68c-1.2-6.94-3.16-13.73-5.11-20.5c-5.43-18.83-10.86-37.65-16.29-56.48
				c-4.15-14.4-14.26-33.68-8.56-48.57c10.26-26.77,49.87-23.54,62.33-1.19c6.72,12.05,7.79,26.34,8.62,40.12
				c0.74,12.35,1.41,24.81-0.33,37.06c-0.94,6.61-2.57,13.1-3.35,19.73c-1.35,11.57-0.04,23.27,1.27,34.84
				c2.92,25.84,7.14,51.75,9.56,77.49c1.2,12.74,1.83,25.53,1.89,38.32c0.03,6.65-0.1,13.31-0.38,19.95
				c-0.24,5.62-0.42,14.38-2.37,19.5c-8.05-5.09-12.25-20.61-14.74-29.33c-3.25-11.38-5.07-23.1-7.69-34.63
				C1071.04,1301.74,1067.16,1289.33,1063.13,1276.97z"/>
		</g>
		<path class="st10" d="M988.57,1355.88c-2.09-4.1-4.19-8.2-6.28-12.3c-0.28-0.56-0.59-1.14-1.12-1.47
			c-0.68-0.43-1.55-0.34-2.33-0.17c-5.83,1.29-9.96,6.32-13.63,11.03c-6.25,8.06-12.5,16.11-18.75,24.17
			c-4,5.15-9.72,9.74-0.75,9.32C951.62,1386.19,989.34,1357.41,988.57,1355.88z"/>
		<path class="st10" d="M1101.6,1404.73c-0.89,0.89-2.11,1.82-3.3,1.39c-0.55-0.2-0.96-0.65-1.33-1.1
			c-5.66-6.79-18.6-51.26,1.55-44.32c5.26,1.81,11.55,12.49,13.32,17.38C1115.24,1387.46,1108.17,1398.14,1101.6,1404.73z"/>
		<path class="st0" d="M991.9,1096.9c-1.3-5.86-1.73-13.15,0-18.98c2.67-9,4.75-17.21,4.58-26.72c-0.3-16.76-3.14-33.17-1.41-49.98
			c3.41-33.19,32.24-63.11,67.43-55.56c1.53,0.33,3.07,0.77,4.23,1.65c1.34,1.01,2,2.47,2.62,3.88
			c19.78,44.98,38.25,92.18,32.03,139.73c-1.57,12.04-5.75,25.22-18.17,31.75c-5.98,3.15-13.19,4.32-20.27,4.86
			c-12.94,0.98-26.1,0.01-38.63-2.84c-6.07-1.38-12.09-3.24-17.15-6.33C998.85,1113.32,993.75,1105.25,991.9,1096.9z"/>
		<path class="st0" d="M960.42,1017.35c-4.01,3.43-8.12,7.01-13.13,8.66c-8.67,2.85-18.02-0.61-26.48-4.03
			c-16.78-6.78-33.55-13.55-50.33-20.33c-2.08,6.83-4.15,13.66-6.23,20.49c21.29,10.98,42.85,21.43,64.66,31.33
			c6.61,3,13.73,6.02,20.9,4.89c3.74-0.59,7.2-2.29,10.6-3.96c14.38-7.08,28.77-14.17,43.15-21.25c8.56-4.21,17.25-8.52,24.2-15.06
			c6.95-6.54,12.01-15.75,11.28-25.26c-0.57-7.42-6.06-16.2-13.64-18.24c-7.39-1.99-14.21,4.61-19.92,8.47
			C989.82,993.62,974.77,1005.08,960.42,1017.35z"/>
	</g>
	<g>
		<g>
			<path class="st0" d="M1332.1,1422.56c0,0-86.89-32.16-87.59-28.05c-0.7,4.1-57.89,53.65-99.6,54.91l103.77,42.91
				c0,0,10.05,8.74,31.16-20.06C1300.96,1443.48,1312.31,1419.75,1332.1,1422.56z"/>
			<g>
				<path class="st3" d="M1336.68,1454.2c2.75-1.65,5.8-3.42,8.95-2.83c1.62,0.31,3.06,1.22,4.45,2.12
					c14.13,9.11,28.27,18.23,42.4,27.34c-17.5,6.8-35,13.6-52.51,20.41c-12.42,4.83-24.97,9.69-38.14,11.67
					c-1.95,0.29-3.98,0.51-5.84-0.14c-2.03-0.71-3.57-2.36-4.97-4c-5.85-6.83-10.86-14.37-14.89-22.41
					c-1.13-2.26-5.54-8.96-4.12-11.47c1.63-2.88,8.84-1.51,11.52-1.69C1302.53,1471.94,1320.55,1463.89,1336.68,1454.2z"/>
			</g>
		</g>
	</g>
	<g>
		<g>
			<g>
				<path class="st3" d="M861.46,1436.58c-3.78-1.11-7.99-2.3-12.23-1.64c-2.19,0.34-4.1,1.15-5.95,1.94
					c-18.82,8.03-37.63,16.05-56.45,24.08c23.97,4.2,47.94,8.4,71.91,12.59c17.01,2.98,34.19,5.98,52.12,6.68
					c2.65,0.1,5.42,0.15,7.91-0.48c2.72-0.69,4.75-2.08,6.58-3.44c7.68-5.71,14.19-11.93,19.36-18.47c1.45-1.84,7.18-7.36,5.15-9.23
					c-2.32-2.15-12.03-0.61-15.67-0.58C908.39,1448.27,883.68,1443.13,861.46,1436.58z"/>
			</g>
		</g>
	</g>
	<g>
		<g>
			<path class="st12" d="M1424.08,1417.93h-0.52c-3.22,0-5.83-2.61-5.83-5.83v-158.48c0-3.22,2.61-5.83,5.83-5.83h0.52
				c3.22,0,5.83,2.61,5.83,5.83v158.48C1429.91,1415.32,1427.3,1417.93,1424.08,1417.93z"/>
			<path class="st12" d="M1509.43,1444.73h-0.52c-3.22,0-5.83-2.61-5.83-5.83v-158.48c0-3.22,2.61-5.83,5.83-5.83h0.52
				c3.22,0,5.83,2.61,5.83,5.83v158.48C1515.27,1442.12,1512.65,1444.73,1509.43,1444.73z"/>
			<path class="st12" d="M1494.05,1389.07h-0.52c-3.22,0-5.83-2.61-5.83-5.83v-158.48c0-3.22,2.61-5.83,5.83-5.83h0.52
				c3.22,0,5.83,2.61,5.83,5.83v158.48C1499.88,1386.46,1497.27,1389.07,1494.05,1389.07z"/>
			<path class="st12" d="M1579.4,1415.87h-0.52c-3.22,0-5.83-2.61-5.83-5.83v-158.48c0-3.22,2.61-5.83,5.83-5.83h0.52
				c3.22,0,5.83,2.61,5.83,5.83v158.48C1585.24,1413.26,1582.62,1415.87,1579.4,1415.87z"/>
			<path class="st9" d="M1479.98,1292.94c13.74,3.48,27.96,6.99,41.95,4.69c12.23-2.01,23.27-8.3,33.93-14.62
				c9.62-5.7,19.17-11.52,28.65-17.45c5.62-3.52,11.31-7.16,15.5-12.29c4.19-5.13,6.7-12.09,4.95-18.48
				c-2.76-10.07-14.15-14.65-24.11-17.81c-21.99-6.97-45.02-14.01-67.76-10.1c-9.41,1.62-18.4,5.08-27.31,8.52
				c-18.59,7.18-37.19,14.35-55.78,21.53c-10.01,3.86-36.88,10.62-33.41,26.4c2.4,10.89,21.34,13.81,30.01,16.1
				C1444.35,1284.1,1462.19,1288.43,1479.98,1292.94z"/>
			<path class="st9" d="M1504.43,1038.83c-1.43-9.57-2.75-19.88,1.68-28.48c5.5-10.67,18.14-15.43,29.94-17.61
				c27.24-5.03,56.06-1.04,80.91,11.19c9.8,4.82,19.27,11.18,25.07,20.43c10.14,16.18,6.93,37.04,3.09,55.76
				c-9.43,46.03-20.51,91.72-33.19,136.96c-1.08,3.84-2.19,7.74-4.31,11.12c-2.98,4.74-7.74,8.12-12.82,10.49
				c-16.15,7.51-36.5,4.95-50.28-6.34c-22.05-18.07-19.47-55.38-23.33-81.2C1515.61,1113.7,1510.02,1076.27,1504.43,1038.83z"/>
		</g>
		<g>
			<path class="st14" d="M1262.6,1406.26L1262.6,1406.26c-3.37,0-6.1-2.73-6.1-6.1V1198.2c0-3.37,2.73-6.1,6.1-6.1l0,0
				c3.37,0,6.1,2.73,6.1,6.1v201.97C1268.69,1403.53,1265.96,1406.26,1262.6,1406.26z"/>
			<path class="st14" d="M1360.06,1375.84h-0.52c-3.22,0-5.83-2.61-5.83-5.83v-181.5c0-3.22,2.61-5.83,5.83-5.83h0.52
				c3.22,0,5.83,2.61,5.83,5.83v181.5C1365.89,1373.23,1363.28,1375.84,1360.06,1375.84z"/>
			<path class="st14" d="M1556.2,1425.8h-0.52c-3.22,0-5.83-2.61-5.83-5.83v-181.5c0-3.22,2.61-5.83,5.83-5.83h0.52
				c3.22,0,5.83,2.61,5.83,5.83v181.5C1562.03,1423.19,1559.42,1425.8,1556.2,1425.8z"/>
		</g>
		<path class="st14" d="M1406.07,1161.39c-5.65,2.59-8.85,8.57-11.34,14.27c-0.62,1.42-1.24,2.94-1.05,4.48
			c0.33,2.74,3.17,4.6,5.93,4.85c2.75,0.25,5.45-0.68,8.1-1.46s5.52-1.39,8.14-0.51c2.24,0.75,4.29,2.57,6.63,2.23
			c2.98-0.43,4.25-3.88,5.87-6.42c2.07-3.24,5.38-5.45,8.54-7.63c4.35-3.01,10.06-7.44,9.14-13.51c-0.7-4.62-4.79-7.75-9.35-6.98
			c-3.93,0.67-7.26,5.16-10.94,6.73C1419.45,1160.15,1412.26,1158.56,1406.07,1161.39z"/>
		<path class="st15" d="M1399.2,1362.4c1.85,0.87,3.71,1.88,4.76,3.41c1.8,2.63,0.67,5.92-0.5,8.78
			c-2.26,5.54-4.52,11.09-6.78,16.63c-0.36,0.89-0.76,1.82-1.63,2.42c-1.42,0.98-3.52,0.72-5.34,0.41
			c-8.9-1.56-17.76-3.3-26.57-5.19c-5.27-1.14-10.63-2.37-15.09-4.95c-6.38-3.68-10.39-10.28-9.25-16.64
			c1.14-6.36,7.89-11.94,15.66-12.2c7.87-0.26,12.74,6.1,20.11,5.66c4.21-0.25,7.48-2.2,11.97-1.91
			C1390.99,1359.1,1395.37,1360.59,1399.2,1362.4z"/>
		<path class="st15" d="M1504.77,1421.83c-3.38,1.16-5.99,4.34-6.46,7.88c-0.47,3.55,1.21,7.29,4.18,9.3
			c2.54,1.72,5.73,2.13,8.8,2.2c5.91,0.14,11.83-0.82,17.4-2.81c1.77-0.63,3.58-1.43,4.71-2.93c0.79-1.05,1.17-2.36,1.54-3.63
			c2.04-7.12,4.07-14.24,6.11-21.36c2.52-8.81,6.14-23.71-3.86-29.73c-5.48-3.3-16.09-0.62-21.48,2.35
			c-5.86,3.22-8.27,8.61-8.36,15.16C1507.23,1406.5,1515.99,1417.98,1504.77,1421.83z"/>
		<path class="st14" d="M1382.66,1360.72c-0.31,0.89-0.62,1.81-0.59,2.76c0.07,2.24,1.97,3.94,3.76,5.28
			c3.05,2.28,6.81,4.46,10.47,3.4c3.96-1.15,5.9-5.49,7.35-9.35c1.06-2.83,2.13-5.69,2.61-8.67c0.81-5.05-0.16-10.37-2.69-14.82
			c-3.18-5.58-9.48-7.19-13.04-1.59C1386.59,1343.94,1385.05,1353.73,1382.66,1360.72z"/>
		<path class="st14" d="M1506.98,1372.52c1.92,7.91,5.47,15.42,10.38,21.91c0.64,0.85,1.39,1.74,2.43,1.98
			c1.1,0.25,2.21-0.29,3.21-0.81c2.94-1.54,6.01-3.19,7.79-5.99c2.54-3.97,1.83-9.23,0.09-13.6c-0.98-2.47-2.25-4.8-3.56-7.11
			c-1.28-2.26-2.67-4.58-4.81-6.05c-2.28-1.57-5.31-1.98-7.93-1.08C1510.16,1363.27,1505.83,1367.76,1506.98,1372.52z"/>
		<path class="st12" d="M1447.06,1249.65c-6.47,3.72-13.56,8.36-14.99,15.81c-0.91,4.71,0.73,9.53,2.65,13.91
			c5.6,12.79,13.77,24.2,21.88,35.5c14.99,20.9,29.98,41.79,44.97,62.69c0.43,0.6,0.89,1.23,1.54,1.56
			c1.31,0.66,2.84-0.06,4.13-0.77c7.58-4.19,15.16-8.37,22.74-12.56c-3.54-33.62-18.31-65.9-41.29-90.18
			c25.63-6.18,50.12-17.23,71.88-32.42c4.35-3.04,8.65-6.29,12.03-10.43c6.72-8.21,9.31-19.79,6.74-30.17
			c-1.15-4.65-3.53-9.32-7.71-11.47c-3.29-1.69-7.18-1.57-10.83-1.08c-19.26,2.56-32.54,15.86-49.2,24.4
			C1489.81,1225.62,1468.32,1237.44,1447.06,1249.65z"/>
		<path class="st12" d="M1427.8,1223.64c-4.62,2.09-9.29,4.23-13.16,7.55c-4.29,3.68-7.35,8.63-10.02,13.66
			c-14.63,27.61-19.14,59.5-23.01,90.67c-0.2,1.63-0.39,3.36,0.26,4.86c0.68,1.56,2.14,2.58,3.55,3.5c7.49,4.9,15.36,9.2,23.5,12.86
			c1.22,0.55,2.64,1.09,3.85,0.51c1.15-0.54,1.68-1.87,2.12-3.08c8.03-22.5,15.73-45.12,23.08-67.85c1.1-3.4,2.24-6.9,4.5-9.63
			c1.82-2.2,4.26-3.77,6.71-5.2c23.96-13.98,52.96-18.36,74.78-35.63c6.42-5.08,12.19-11.37,15.25-19.07
			c7.22-18.12-5.68-36.99-25.31-31.88c-7.22,1.88-13.79,7.1-20.61,10.12c-10.27,4.55-20.68,8.8-30.97,13.29
			C1450.78,1213.35,1439.28,1218.45,1427.8,1223.64z"/>
		<path class="st16" d="M1493.49,1078.22c-7.18,10.47-11.56,22.66-14.18,35.09c-0.26,1.21-0.51,2.47-1.25,3.47
			c-0.84,1.15-2.19,1.8-3.48,2.4c-15.12,7.13-29.85,15.09-44.11,23.82c-2.55,1.56-5.42,3.78-5.14,6.76c0.09,0.95,0.51,1.84,0.93,2.7
			c3.96,8.22,7.92,16.44,11.88,24.66c0.41,0.85,0.89,1.76,1.76,2.11c0.83,0.33,1.77,0.03,2.61-0.27
			c16.65-5.93,32.42-14.32,46.65-24.8c2.39-1.76,4.74-3.58,6.84-5.66c3.42-3.38,6.14-7.38,8.84-11.36
			c3.94-5.81,7.89-11.62,11.83-17.43c6.62-9.75,13.31-19.67,16.99-30.86c2.53-7.71,6.96-35.16-6.67-34.83
			C1513.84,1054.35,1500.33,1068.24,1493.49,1078.22z"/>
		<path class="st17" d="M1584.27,1202.21c-1.51,9.09-5.09,18.31-12.27,24.08c-4.57,3.68-10.26,5.69-15.97,7
			c-5.82,1.33-11.8,2.01-17.77,1.92c-5.06-0.07-10.1-0.69-15.1-1.52c-10.99-1.83-22.4-5.06-30.1-13.11
			c-4.12-4.31-6.69-10.38-6.97-16.3c-0.25-5.12,1.21-10.14,4.84-13.82c0.73-0.74,1.55-1.44,1.96-2.4c1.01-2.32-0.75-4.8-1.51-7.21
			c-1.68-5.3,1.59-10.82,5.01-15.2c3.43-4.38,7.37-9.07,7.26-14.63c-0.08-4.05-2.34-7.71-3.26-11.65
			c-3.63-15.48,13.58-29.64,11.4-45.38c-1.46-10.55-6.59-16.62-0.37-26.8c2.93-4.81,6.34-9.47,11.47-12.05
			c13.07-6.59,35.32-9.12,44.75,3.54c2.71,3.63,5.05,7.54,7,11.64c2.52,5.32,4.37,10.98,5.46,16.77c1.18,6.27,1.48,12.66,1.78,19.03
			c1.03,21.96,2.06,43.92,3.1,65.88C1585.45,1182.08,1585.92,1192.25,1584.27,1202.21z"/>
		<path class="st16" d="M1584.27,1202.21c-1.51,9.09-5.09,18.31-12.27,24.08c-4.57,3.68-10.26,5.69-15.97,7
			c-5.82,1.33-11.8,2.01-17.77,1.92c-5.06-0.07-10.1-0.69-15.1-1.52c-10.99-1.83-22.4-5.06-30.1-13.11
			c-4.12-4.31-6.69-10.38-6.97-16.3c1.74-4.97,4.64-9.73,7.81-13.9c3.55-4.67,7.47-9.07,10.82-13.89c1.52-2.18,3.47-4.69,4.31-7.24
			c0.73-2.22,0.14-3.9,2.42-5.54c1.64-1.19,3.68-1.66,5.65-2.16c7.34-1.83,14.76-4.43,20.35-9.53c4.14-3.78,7.04-8.73,9.53-13.75
			c9.42-18.95,14.02-39.85,20.27-60.07c1.11-3.6,3.91-6.36,7.39-7.88c2.52,5.32,4.37,10.98,5.46,16.77
			c1.18,6.27,1.48,12.66,1.78,19.03c1.03,21.96,2.06,43.92,3.1,65.88C1585.45,1182.08,1585.92,1192.25,1584.27,1202.21z"/>
		<path class="st14" d="M1440.04,1457.53L1440.04,1457.53c-3.37,0-6.1-2.73-6.1-6.1v-201.97c0-3.37,2.73-6.1,6.1-6.1l0,0
			c3.37,0,6.1,2.73,6.1,6.1v201.97C1446.14,1454.8,1443.41,1457.53,1440.04,1457.53z"/>
		<polygon class="st14" points="1597.03,1225.09 1597.45,1224.96 1342.17,1166.54 1189.85,1192.21 1190.35,1192.36 1189.85,1192.44 
			1190.35,1192.59 1189.85,1192.67 1190.35,1192.81 1189.85,1192.9 1190.35,1193.04 1189.85,1193.13 1190.35,1193.27 
			1189.85,1193.36 1190.35,1193.5 1189.85,1193.59 1190.35,1193.73 1189.85,1193.82 1190.35,1193.96 1189.85,1194.04 
			1190.35,1194.19 1189.85,1194.27 1190.35,1194.42 1189.85,1194.5 1190.35,1194.65 1189.85,1194.73 1190.35,1194.88 
			1189.85,1194.96 1190.35,1195.1 1189.85,1195.19 1190.35,1195.33 1189.85,1195.42 1190.35,1195.56 1189.85,1195.65 
			1190.35,1195.79 1189.85,1195.88 1190.35,1196.02 1189.85,1196.11 1190.35,1196.25 1189.85,1196.34 1190.35,1196.48 
			1189.85,1196.56 1190.35,1196.71 1189.85,1196.79 1190.35,1196.94 1189.85,1197.02 1190.35,1197.17 1189.85,1197.25 
			1190.35,1197.4 1189.85,1197.48 1190.35,1197.62 1189.85,1197.71 1190.35,1197.85 1189.85,1197.94 1190.35,1198.08 
			1189.85,1198.17 1190.35,1198.31 1189.85,1198.4 1190.35,1198.54 1189.85,1198.63 1190.35,1198.77 1189.85,1198.85 1190.35,1199 
			1189.85,1199.08 1190.35,1199.23 1189.85,1199.31 1458.66,1275.92 1597.45,1232.06 1597.03,1231.96 1597.45,1231.83 
			1597.03,1231.73 1597.45,1231.6 1597.03,1231.5 1597.45,1231.37 1597.03,1231.27 1597.45,1231.14 1597.03,1231.04 
			1597.45,1230.91 1597.03,1230.81 1597.45,1230.68 1597.03,1230.58 1597.45,1230.45 1597.03,1230.36 1597.45,1230.22 
			1597.03,1230.13 1597.45,1229.99 1597.03,1229.9 1597.45,1229.76 1597.03,1229.67 1597.45,1229.54 1597.03,1229.44 
			1597.45,1229.31 1597.03,1229.21 1597.45,1229.08 1597.03,1228.98 1597.45,1228.85 1597.03,1228.75 1597.45,1228.62 
			1597.03,1228.52 1597.45,1228.39 1597.03,1228.29 1597.45,1228.16 1597.03,1228.07 1597.45,1227.93 1597.03,1227.84 
			1597.45,1227.7 1597.03,1227.61 1597.45,1227.47 1597.03,1227.38 1597.45,1227.25 1597.03,1227.15 1597.45,1227.02 
			1597.03,1226.92 1597.45,1226.79 1597.03,1226.69 1597.45,1226.56 1597.03,1226.46 1597.45,1226.33 1597.03,1226.23 
			1597.45,1226.1 1597.03,1226 1597.45,1225.87 1597.03,1225.78 1597.45,1225.64 1597.03,1225.55 1597.45,1225.41 1597.03,1225.32 
			1597.45,1225.18 		"/>
		<polyline class="st18" points="1189.85,1192.21 1342.17,1166.54 1597.45,1224.96 1458.66,1268.82 		"/>
		<path class="st19" d="M1333.03,1183.45l78.4-11.54l102.28,23.41c4.94,1.13,5.22,8.06,0.39,9.58l-50.16,15.85"/>
		<path class="st3" d="M1478.32,1178.43c-1.33,0.19-2.7,0.27-3.92,0.83c-0.97,0.45-1.78,1.17-2.56,1.9
			c-2.63,2.46-5.08,5.11-7.32,7.91c-0.97,1.21-1.95,2.64-1.74,4.17c0.35,2.46,3.64,4.25,2.87,6.6c-0.36,1.1-1.52,1.74-2.07,2.77
			c-0.75,1.41-0.11,3.24,1.09,4.29s2.82,1.46,4.39,1.72c11.11,1.78,23.04-3.79,28.81-13.45c1.12-1.87,2.02-3.87,3.29-5.64
			c3.13-4.37,20.08-18.74,6.57-22.38C1499.38,1164.9,1486.92,1177.23,1478.32,1178.43z"/>
		<g>
			<g>
				<path class="st17" d="M1574.33,1101.02c-7.72,26.83-18.32,54.31-39.58,72.4c-7.8,6.64-16.74,11.76-25.63,16.83
					c-0.52,0.3-1.09,0.6-1.68,0.52c-0.72-0.09-1.23-0.72-1.68-1.29c-5.94-7.76-11.89-15.52-17.84-23.29
					c0.36-0.6,0.74-1.18,1.15-1.74c9.7-13.85,29.33-19.01,38.07-33.67c3.14-5.26,4.58-11.33,5.82-17.32
					c2.23-10.88,3.95-22.11,9.21-31.88c3.77-7,13.78-15.31,22.28-17.02c6.83-1.39,12.68,1.48,13.57,12.7
					C1578.64,1085.29,1576.56,1093.28,1574.33,1101.02z"/>
			</g>
		</g>
		<g>
			<path class="st15" d="M1505.45,1035.09c-5.16,2.62-11.97,1.42-15.93-2.8c-3.96-4.22-4.72-11.1-1.78-16.07
				c-0.95-2.09-1.92-4.21-3.42-5.95c-1.96-2.28-4.66-3.75-7.07-5.54c-8.63-6.43-13.43-17.66-12.08-28.34
				c1.34-10.68,8.77-20.38,18.73-24.47c4.22-1.73,8.94-2.5,13.39-1.46c4.44,1.03,8.54,4.04,10.24,8.27
				c3.98-7.88,11.77-13.86,20.52-15.05s18.14,2.73,22.94,10.13c4.12,6.35,4.67,14.27,6.35,21.65c0.27,1.19,0.61,2.43,1.45,3.32
				c1.28,1.34,3.32,1.5,5.08,2.08c4.85,1.59,7.87,6.83,7.97,11.93s-2.24,9.98-5.35,14.03c-0.75,0.98-1.57,2.33-0.84,3.32
				c0.39,0.53,1.1,0.71,1.69,1.01c2.2,1.12,2.83,3.95,2.94,6.41c0.33,7.38-1.84,14.96-6.56,20.65c-4.72,5.69-12.04,9.3-19.42,8.94
				c-9.35-0.45-17.34-6.76-26.34-9.33c-7.16-2.05-14.76-1.67-22.2-1.28"/>
			<path class="st3" d="M1522.54,1073c2.3,2.34,5.99,2.95,9.15,2.06c3.16-0.89,5.82-3.07,7.89-5.61c6.83-8.35,7.73-20.14,6.2-30.82
				c-0.34-2.4-0.83-4.88-2.27-6.83c-2.11-2.88-5.96-4.08-9.52-3.76c-8.35,0.75-19.62,7.8-18.08,17.15
				c0.76,4.58,2.65,8.85,3.21,13.52C1519.7,1063.39,1518.94,1069.34,1522.54,1073z"/>
			<path class="st3" d="M1490.68,1015.82c1.4,4.92,4,9.55,4.41,14.64c0.19,2.36-0.1,4.76,0.21,7.11c0.54,4.19,2.94,7.94,5.86,10.99
				c5.32,5.56,12.77,9.26,20.47,9.32s15.51-3.8,19.49-10.39c2.36-3.9,3.32-8.48,5.4-12.54c2.37-4.64,6.12-8.5,8.19-13.28
				c2.07-4.78,1.78-11.32-2.63-14.08c-4.44-2.78-11.3,0.93-11.4,6.17c2.04-5.49,3.02-11.49,1.94-17.25
				c-1.07-5.76-4.36-11.24-9.41-14.2c-5.87-3.45-13.13-3.16-19.92-2.58c-0.65,0.06-1.36,0.14-1.82,0.6
				c-0.38,0.38-0.51,0.93-0.62,1.45c-0.58,2.63-1.16,5.29-1.11,7.99c0.04,2.08,0.47,4.18,0.15,6.24c-0.52,3.36-3.17,6.29-6.46,7.15
				c-4.9,1.27-8.14-4.71-11.41-3.84C1487.17,1000.6,1489.79,1012.72,1490.68,1015.82z"/>
		</g>
		<path class="st10" d="M1313.56,1105.6l115.14,28.19c4.86,1.19,8.75,4.81,10.28,9.57l24.95,77.4l-130.91-37.3l-24.76-72.06
			C1307.12,1108.05,1310.12,1104.76,1313.56,1105.6z"/>
		
			<ellipse transform="matrix(0.7431 -0.6692 0.6692 0.7431 -422.797 1221.863)" class="st20" cx="1379.89" cy="1161.56" rx="7.88" ry="11.59"/>
	</g>
	<path class="st14" d="M800.37,948.7c-1.92-0.21-3.65,1.18-3.86,3.1l-8.91,81.97l-123.47,8.33l18.04-78.99
		c0.43-1.88-0.75-3.76-2.63-4.19c-1.89-0.43-3.76,0.75-4.19,2.63l-53.1,232.54c0,0,0,0,0,0l-53.07,232.39
		c-0.43,1.88,0.75,3.76,2.63,4.19c0.26,0.06,0.52,0.09,0.78,0.09c1.6,0,3.04-1.1,3.41-2.72l15.39-67.39l159.07,14.58l-5.62,51.65
		c-0.21,1.92,1.18,3.65,3.1,3.86c0.13,0.01,0.26,0.02,0.38,0.02c1.76,0,3.28-1.33,3.48-3.12l25.09-230.68
		c0.47-0.6,0.77-1.34,0.77-2.16c0-0.55-0.14-1.07-0.37-1.53l26.18-240.71C803.68,950.64,802.29,948.91,800.37,948.7z
		 M786.83,1040.84l-8.31,76.38l-132.21,2.93l16.19-70.92L786.83,1040.84z M770.47,1191.3h-140.4l14.64-64.11l133.06-2.95
		L770.47,1191.3z M760.2,1285.73l-149.82-8.21l18.09-79.22h141.24L760.2,1285.73z M592.97,1353.77l15.83-69.32l150.64,8.26
		l-8.22,75.57L592.97,1353.77z"/>
	<path class="st0" d="M1483.39,569.09l-0.38,5.93l-943.06,93.99l0.2-21.76c0.36-24.36,18.98-44.55,43.22-46.89l847.68-81.91
		C1460.37,515.62,1485.25,539.7,1483.39,569.09z"/>
	<circle class="st15" cx="1333.03" cy="559.35" r="16.68"/>
	<circle class="st15" cx="1382.08" cy="554.9" r="14.7"/>
	<circle class="st15" cx="1426.89" cy="551.13" r="13.18"/>
	<g>
		<polygon class="st15" points="684.71,1407.65 750.66,1489.16 625.35,1448.4 		"/>
		<path class="st17" d="M411.43,1425.57l69.44-77.12c5.22-5.8,13.37-7.97,20.78-5.55l184.92,60.4c12.9,4.21,17.79,19.89,9.57,30.69
			l-59.23,77.85c-5.03,6.61-13.66,9.36-21.59,6.88l-195.13-61.12C406.48,1453.29,401.82,1436.24,411.43,1425.57z"/>
		<polygon class="st15" points="547.22,1403.8 515.61,1438.87 581.84,1438.87 		"/>
	</g>
	<polygon class="st7" points="796.43,753.84 796.43,802.21 848.41,770.52 	"/>
</g>
</svg>
