<?xml version="1.0" encoding="utf-8"?>
<!-- Generator: Adobe Illustrator 24.2.1, SVG Export Plug-In . SVG Version: 6.00 Build 0)  -->
<!DOCTYPE svg PUBLIC "-//W3C//DTD SVG 1.1//EN" "http://www.w3.org/Graphics/SVG/1.1/DTD/svg11.dtd" [
	<!ENTITY ns_extend "http://ns.adobe.com/Extensibility/1.0/">
	<!ENTITY ns_ai "http://ns.adobe.com/AdobeIllustrator/10.0/">
	<!ENTITY ns_graphs "http://ns.adobe.com/Graphs/1.0/">
	<!ENTITY ns_vars "http://ns.adobe.com/Variables/1.0/">
	<!ENTITY ns_imrep "http://ns.adobe.com/ImageReplacement/1.0/">
	<!ENTITY ns_sfw "http://ns.adobe.com/SaveForWeb/1.0/">
	<!ENTITY ns_custom "http://ns.adobe.com/GenericCustomNamespace/1.0/">
	<!ENTITY ns_adobe_xpath "http://ns.adobe.com/XPath/1.0/">
]>
<svg version="1.1" id="Layer_1" xmlns:x="&ns_extend;" xmlns:i="&ns_ai;" xmlns:graph="&ns_graphs;"
	 xmlns="http://www.w3.org/2000/svg" xmlns:xlink="http://www.w3.org/1999/xlink" x="0px" y="0px" width="2048px" height="2048px"
	 viewBox="0 0 2048 2048" style="enable-background:new 0 0 2048 2048;" xml:space="preserve">
<style type="text/css">
	.Drop_x0020_Shadow{fill:none;}
	.Round_x0020_Corners_x0020_2_x0020_pt{fill:#FFFFFF;stroke:#231F20;stroke-miterlimit:10;}
	.Live_x0020_Reflect_x0020_X{fill:none;}
	.Bevel_x0020_Soft{fill:url(#SVGID_1_);}
	.Dusk{fill:#FFFFFF;}
	.Foliage_GS{fill:#FFDD00;}
	.Pompadour_GS{fill-rule:evenodd;clip-rule:evenodd;fill:#44ADE2;}
	.st0{fill:#D7E2F4;}
	.st1{fill:#53342C;}
	.st2{fill:#936C77;}
	.st3{fill:#F4E4E9;}
	.st4{fill:#FFEAD3;}
	.st5{fill:#18323A;}
	.st6{fill:#FFFFFF;}
	.st7{fill:#F9A945;}
	.st8{fill:#89324C;}
	.st9{fill:#C98132;}
	.st10{fill:#ECA47E;}
	.st11{fill:#066865;}
	.st12{fill:#EDD4B8;}
	.st13{fill:#161A73;}
	.st14{fill:#E2A223;}
	.st15{fill:#E2DCF9;}
</style>
<metadata>
	<sfw  xmlns="&ns_sfw;">
		<slices></slices>
		<sliceSourceBounds  bottomLeftOrigin="true" height="1633.5" width="1556.2" x="245.9" y="-1846.8"></sliceSourceBounds>
	</sfw>
</metadata>
<linearGradient id="SVGID_1_" gradientUnits="userSpaceOnUse" x1="0" y1="0" x2="0.7071" y2="0.7071">
	<stop  offset="0" style="stop-color:#DEDFE3"/>
	<stop  offset="0.1783" style="stop-color:#DADBDF"/>
	<stop  offset="0.3611" style="stop-color:#CECFD3"/>
	<stop  offset="0.546" style="stop-color:#B9BCBF"/>
	<stop  offset="0.7324" style="stop-color:#9CA0A2"/>
	<stop  offset="0.9181" style="stop-color:#787D7E"/>
	<stop  offset="1" style="stop-color:#656B6C"/>
</linearGradient>
<g>
	<ellipse class="st0" cx="1471.5" cy="1777.9" rx="114.9" ry="68.9"/>
	<g>
		<polygon class="st0" points="292.3,1442.9 245.9,1468.8 818.8,1834.7 1669.3,1308.9 985.8,987.7 		"/>
		<g>
			<g>
				<path class="st1" d="M1613.8,1271.5c0.1-0.4,0.1-0.6,0.1-0.6l-10.9-27.6c0,0-0.9,4.4-2.3,10.4c-1.4-1.1-3-2.1-4.6-3l-492-278.9
					c-12.3-7-27.3-6.9-39.5,0.2l-745.8,431.4l-26.4-1.8l-0.7,41.8l0.5,0.2c0.5,12.6,6.9,25,19.3,32.4l493.5,295
					c12.6,7.5,28.3,7.5,40.9,0l751.3-451.5C1614.4,1308.9,1620,1288.4,1613.8,1271.5z"/>
			</g>
		</g>
		<g>
			<g>
				<g>
					<g>
						<path class="st1" d="M1072.7,940.3V399c0-35.9-37.9-58.6-68.5-40.9L277.5,775.8c-14.5,8.3-23.4,24-23.4,40.9v553
							c0,36.2,38.4,58.8,69,40.7L1049.7,981C1063.9,972.6,1072.7,957.1,1072.7,940.3z"/>
					</g>
				</g>
			</g>
			<g>
				<g>
					<path class="st2" d="M1079.5,948.3V416.2c0-35.3-37.2-57.6-67.4-40.2L297.9,786.6c-14.2,8.2-23,23.6-23,40.2v543.6
						c0,35.6,37.7,57.8,67.8,40l714.3-422.1C1070.9,980,1079.5,964.8,1079.5,948.3z"/>
				</g>
			</g>
			<g>
				<path class="st3" d="M1583.9,1217.7l-486.7-275.9c-12.1-6.9-27-6.8-39.1,0.2l-744.6,430.7c-26,15-26.2,52.4-0.5,67.8
					l488.2,291.8c12.5,7.4,28,7.4,40.5,0l743.1-446.6C1610.5,1270.1,1610.1,1232.5,1583.9,1217.7z"/>
			</g>
			<g>
				<g>
					<polygon class="st4" points="322.2,825.9 1040.8,412.6 1040.8,915.3 324.9,1331.2 					"/>
				</g>
			</g>
			<g>
				<g>
					<polygon class="st5" points="761.8,1205.8 802.2,1231.4 842,1208.2 803.3,1181.7 					"/>
				</g>
				<g>
					<polygon class="st5" points="707.3,1237.4 746.2,1263.9 788.1,1239.5 747.7,1213.9 					"/>
				</g>
				<g>
					<polygon class="st5" points="817.1,1173.6 855.8,1200.2 896.8,1176.4 856.2,1151 					"/>
				</g>
				<g>
					<polygon class="st5" points="870.3,1142.8 910.9,1168.2 951.4,1144.6 913.4,1117.7 					"/>
				</g>
				<g>
					<polygon class="st5" points="1073.5,1205.6 1032.7,1180.4 994.3,1202.7 1033.4,1228.8 					"/>
				</g>
				<g>
					<polygon class="st5" points="1013.8,1125 1053.2,1151.8 1094.2,1128.1 1055,1101.1 					"/>
				</g>
				<g>
					<polygon class="st5" points="979.9,1079.2 1018.8,1105.5 1060.6,1081.2 1021.8,1054.9 					"/>
				</g>
				<g>
					<polygon class="st5" points="927.2,1109.8 965.1,1136.6 1004.9,1113.5 966,1087.2 					"/>
				</g>
				<g>
					<polygon class="st5" points="835.1,1415.3 790.1,1386.9 748.7,1411 795.2,1438.6 					"/>
				</g>
				<g>
					<polygon class="st5" points="651.9,1269.5 693,1294.8 732.4,1271.9 693.5,1245.4 					"/>
				</g>
				<g>
					<polygon class="st5" points="780.9,1447 734.4,1419.3 694.1,1442.7 741.5,1470 					"/>
				</g>
				<g>
					<polygon class="st5" points="942.6,1352.6 897.3,1324.6 857.8,1347.6 904.4,1374.9 					"/>
				</g>
				<g>
					<polygon class="st5" points="746.7,1395.4 706.9,1369 668.2,1391.5 707.7,1418.1 					"/>
				</g>
				<g>
					<polygon class="st5" points="598,1300.8 638,1326.8 678.8,1303 637.8,1277.7 					"/>
				</g>
				<g>
					<polygon class="st5" points="679.5,1434.5 679.6,1434.3 679.7,1434.4 693.8,1426.1 654.3,1399.5 611.5,1424.3 651.7,1450.6 
											"/>
				</g>
				<g>
					<path class="st5" d="M663.1,1377.7c-14.5-9.6-31.3-20.6-39.5-25.9l-40.8,23.7l37.5,27L663.1,1377.7z"/>
				</g>
				<g>
					<polygon class="st5" points="890.1,1383.2 843.4,1355.9 804.2,1378.7 849.2,1407.1 					"/>
				</g>
				<g>
					<polygon class="st5" points="1183.4,1141.7 1142,1117.1 1101.6,1140.5 1143.5,1164.9 					"/>
				</g>
				<g>
					<polygon class="st5" points="771,1315.2 729.3,1290.4 691.4,1312.4 731.9,1337.9 					"/>
				</g>
				<g>
					<polygon class="st5" points="1046.9,1172.2 1087.7,1197.3 1129.1,1173.2 1087.2,1148.9 					"/>
				</g>
				<g>
					<path class="st5" d="M637.6,1343.7c7.7,4.9,19.9,13,39.5,25.9l40.7-23.5l-40.5-25.4L637.6,1343.7z"/>
				</g>
				<g>
					<polygon class="st5" points="487.9,1364.7 528.4,1390.5 568.8,1367 529.4,1340.7 					"/>
				</g>
				<g>
					<polygon class="st5" points="1197.7,1133.4 1223.3,1118.6 1281.7,1154.7 1341,1120.2 1239.3,1060.7 1156.3,1108.9 					"/>
				</g>
				<g>
					<polygon class="st5" points="1019.5,1236.9 980.4,1210.7 940.4,1233.9 980,1259.8 					"/>
				</g>
				<g>
					<polygon class="st5" points="907.4,1186.9 946.4,1213.7 985.7,1190.9 945,1165.1 					"/>
				</g>
				<g>
					<polygon class="st5" points="624,1334.9 584,1308.9 543.3,1332.6 582.7,1358.9 					"/>
				</g>
				<g>
					<polygon class="st5" points="912,1299.4 871.1,1274 830,1297.7 871.4,1323 					"/>
				</g>
				<g>
					<polygon class="st5" points="857.2,1331.2 815.8,1306 777.8,1328 815.6,1355.4 					"/>
				</g>
				<g>
					<polygon class="st5" points="966.1,1268 926.4,1241.9 885.3,1265.8 926.2,1291.2 					"/>
				</g>
				<g>
					<polygon class="st5" points="853.1,1218.5 891.4,1245.5 932.6,1221.7 893.6,1194.9 					"/>
				</g>
				<g>
					<polygon class="st5" points="798.5,1250.2 838.6,1276.1 877.7,1253.5 839.3,1226.5 					"/>
				</g>
				<g>
					<polygon class="st5" points="801.9,1363.3 764.2,1335.9 720.9,1361 760.6,1387.4 					"/>
				</g>
				<g>
					<polygon class="st5" points="743.6,1282.1 785.3,1307 824.6,1284.2 784.5,1258.3 					"/>
				</g>
				<g>
					<polygon class="st5" points="1039.4,1159.9 1000,1133.1 959,1156.9 999.7,1182.8 					"/>
				</g>
				<g>
					<polygon class="st5" points="597.6,1432.3 507.1,1484.7 549.4,1510 637.8,1458.7 					"/>
				</g>
				<g>
					<polygon class="st5" points="569.2,1383.5 451.8,1451.7 492.9,1476.3 606.6,1410.4 					"/>
				</g>
				<g>
					<polygon class="st5" points="624.5,1554.9 665.6,1579.5 783.5,1511 741.5,1486.7 					"/>
				</g>
				<g>
					<polygon class="st5" points="594.8,1286 579.9,1273.5 535.8,1299 551.9,1310.9 					"/>
				</g>
				<g>
					<polygon class="st5" points="473.9,1372.9 395.7,1418.2 437.6,1443.2 514.3,1398.6 					"/>
				</g>
				<g>
					<polygon class="st5" points="538.3,1318.8 522.2,1306.9 479.6,1331.5 495.1,1343.8 					"/>
				</g>
				<g>
					<polygon class="st5" points="481.7,1351.6 466.2,1339.3 420.2,1365.9 437.2,1377.5 					"/>
				</g>
				<g>
					<polygon class="st5" points="406.4,1373.9 363.3,1398.8 381.6,1409.7 423.4,1385.5 					"/>
				</g>
				<g>
					<polygon class="st5" points="679.7,1451 563.6,1518.5 610.4,1546.4 727.1,1478.4 					"/>
				</g>
				<g>
					<polygon class="st5" points="1135,1257.1 1176.6,1282.5 1215.3,1260 1173.6,1234.5 					"/>
				</g>
				<g>
					<polygon class="st5" points="755.9,1478.3 797.9,1502.6 836.6,1480.1 795.1,1455.4 					"/>
				</g>
				<g>
					<polygon class="st5" points="1355.3,1128.5 1242.3,1194.5 1284.2,1220 1398.3,1153.7 					"/>
				</g>
				<g>
					<polygon class="st5" points="1187.8,1226.3 1229.6,1251.7 1270,1228.2 1228.1,1202.7 					"/>
				</g>
				<g>
					<polygon class="st5" points="809.4,1447.1 850.9,1471.8 1052.7,1354.5 1011.2,1329.3 					"/>
				</g>
				<g>
					<polygon class="st5" points="1079.8,1289.3 1121.4,1314.6 1162.4,1290.7 1120.8,1265.4 					"/>
				</g>
				<g>
					<polygon class="st5" points="1025.4,1321 1066.9,1346.3 1107.2,1322.8 1065.7,1297.5 					"/>
				</g>
				<g>
					<polygon class="st5" points="1214.1,1194.2 1169,1166.8 1128.6,1190.2 1173.8,1217.8 					"/>
				</g>
				<g>
					<polygon class="st5" points="653.3,1252 636.8,1240.6 593.2,1265.8 608.1,1278.3 					"/>
				</g>
				<g>
					<polygon class="st5" points="1108,1120.1 1225,1052.4 1182.1,1027.3 1068.8,1093.1 					"/>
				</g>
				<g>
					<polygon class="st5" points="1074.5,1073.1 1167.7,1018.9 1125.9,994.4 1035.6,1046.8 					"/>
				</g>
				<g>
					<polygon class="st5" points="997.2,1320.7 951.7,1293 911.5,1316.4 956.7,1344.4 					"/>
				</g>
				<g>
					<polygon class="st5" points="1051.6,1289 1006.2,1261.3 965.9,1284.8 1011.4,1312.5 					"/>
				</g>
				<g>
					<polygon class="st5" points="1111.6,986 1094.1,975.8 1051.7,1000.4 1066.2,1012.4 					"/>
				</g>
				<g>
					<polygon class="st5" points="1106.8,1256.8 1061.5,1229.2 1020.5,1253.1 1065.8,1280.7 					"/>
				</g>
				<g>
					<polygon class="st5" points="1159.6,1226 1114.4,1198.5 1075.7,1221 1120.9,1248.5 					"/>
				</g>
				<g>
					<polygon class="st5" points="1267.6,1163 1223,1135.4 1183.3,1158.5 1228.3,1185.9 					"/>
				</g>
				<g>
					<polygon class="st5" points="767.9,1185.5 752.7,1173.5 709.3,1198.6 723.4,1211.3 					"/>
				</g>
				<g>
					<polygon class="st5" points="710.3,1218.9 696.2,1206.2 650.6,1232.6 667.2,1244 					"/>
				</g>
				<g>
					<polygon class="st5" points="1052.8,1020.1 1038.3,1008.1 994.3,1033.6 1011.3,1044.2 					"/>
				</g>
				<g>
					<polygon class="st5" points="824.5,1152.7 809.1,1140.8 766.1,1165.7 781.4,1177.7 					"/>
				</g>
				<g>
					<polygon class="st5" points="997.1,1052.4 980.1,1041.8 937.4,1066.6 953.1,1078 					"/>
				</g>
				<g>
					<polygon class="st5" points="880.4,1120.2 863.1,1109.6 822.6,1133 838,1144.8 					"/>
				</g>
				<g>
					<polygon class="st5" points="939.4,1085.9 923.7,1074.5 877.3,1101.3 894.6,1112 					"/>
				</g>
			</g>
			<g>
				<g>
					<polygon class="st5" points="951.2,1447.5 1087.3,1528.8 1315.3,1396.2 1179,1315.1 					"/>
				</g>
			</g>
		</g>
		<polygon class="st6" points="322.2,825.9 1040.8,412.6 1041.3,681 323.2,1278.2 		"/>
		<g>
			<g>
				<g>
					<g>
						<g>
							<path class="st7" d="M524.2,889.6c1.9-6.3,3-12.6,3-18.5c0-12.9-5.1-21.7-13.1-24.9c-1.5-0.6-3.1-1-4.7-1.2
								c3.8-7.3,6.2-15.3,6.2-22.6c0-15.9-11.3-22.4-25.2-14.4c-13.9,8-25.1,27.4-25.1,43.4c0,7.1,2.3,12.3,6,15.2
								c-1.9,2.4-3.6,4.8-5.3,7.4c-7.9,12.4-12.9,26.9-12.9,39.9c0,6,1.1,11,3.1,15.1c9.4,2.9,21.3,1.1,34.1-6.3
								C503,915.2,514.8,903.4,524.2,889.6 M489.8,784.8c38.8-22.4,70.3-4.4,70.4,40.1c0.1,24.3-9.3,51.6-24,74.9
								c-1,1.6-2,3.1-3,4.6c-11.8,17.4-26.7,32.3-42.9,41.7c-16.2,9.3-31.1,11.7-43,7.9c-3.1-1-6-2.3-8.6-4.1
								c-11.6-7.7-18.7-22.8-18.8-44C419.7,861.4,451,807.2,489.8,784.8z"/>
						</g>
					</g>
				</g>
			</g>
			<g>
				<path class="st8" d="M465.2,851.4c0-0.5,0-0.9,0-1.4c0-0.1,0-0.3,0-0.4c0-0.3,0-0.6,0.1-1c0-0.2,0-0.3,0-0.5
					c0-0.3,0.1-0.6,0.1-1c0-0.2,0-0.3,0.1-0.5c0-0.2,0.1-0.5,0.1-0.7c0-0.3,0.1-0.7,0.2-1c0-0.2,0.1-0.5,0.1-0.7
					c0.1-0.3,0.1-0.7,0.2-1c0.1-0.3,0.1-0.5,0.2-0.8c0-0.2,0.1-0.4,0.2-0.7c0.1-0.3,0.1-0.6,0.2-0.9c0.1-0.2,0.1-0.4,0.2-0.7
					c0-0.2,0.1-0.3,0.1-0.5c0.2-0.7,0.4-1.4,0.7-2.2c0-0.1,0-0.1,0.1-0.2c0.2-0.7,0.5-1.4,0.8-2.1c0.1-0.2,0.1-0.3,0.2-0.5
					c0.2-0.6,0.5-1.2,0.7-1.8c0-0.1,0.1-0.2,0.1-0.3c0.3-0.6,0.6-1.3,0.9-1.9c0.1-0.2,0.2-0.3,0.2-0.5c0.2-0.5,0.5-1,0.8-1.5
					c0.1-0.2,0.2-0.3,0.2-0.5c0.3-0.6,0.7-1.3,1-1.9c0.1-0.1,0.1-0.2,0.2-0.3c0.3-0.5,0.6-1.1,1-1.6c0.1-0.2,0.2-0.3,0.3-0.5
					c0.4-0.6,0.8-1.3,1.3-1.9c0.1-0.1,0.1-0.2,0.2-0.3c0.5-0.6,0.9-1.3,1.4-1.9c0.1-0.1,0.1-0.2,0.2-0.3c0.1-0.2,0.3-0.4,0.5-0.6
					c0.2-0.2,0.4-0.5,0.6-0.7c0.2-0.2,0.3-0.4,0.5-0.6c0.2-0.2,0.4-0.4,0.6-0.7c0.4-0.4,0.8-0.9,1.2-1.3c0,0,0,0,0.1-0.1
					c0.4-0.4,0.9-0.9,1.3-1.3c0.3-0.3,0.6-0.5,0.8-0.8c0.1-0.1,0.2-0.1,0.2-0.2c0.4-0.3,0.7-0.7,1.1-1c0.1-0.1,0.2-0.2,0.3-0.3
					c0.3-0.2,0.6-0.5,0.8-0.7c0.1-0.1,0.3-0.2,0.4-0.3c0.2-0.2,0.5-0.4,0.7-0.6c0.1-0.1,0.3-0.2,0.4-0.3c0.2-0.2,0.5-0.4,0.7-0.5
					c0.1-0.1,0.3-0.2,0.4-0.3c0.3-0.2,0.5-0.4,0.8-0.5c0.1-0.1,0.3-0.2,0.4-0.3c0.4-0.3,0.8-0.5,1.2-0.7c0.4-0.2,0.8-0.4,1.2-0.6
					c0.1-0.1,0.2-0.1,0.3-0.2c0.3-0.2,0.7-0.3,1-0.5c0,0,0.1,0,0.1-0.1c0.4-0.2,0.7-0.3,1.1-0.5c0.4-0.2,0.7-0.3,1.1-0.4
					c0.1,0,0.2-0.1,0.3-0.1c0.5-0.2,0.9-0.3,1.4-0.4c0.3-0.1,0.5-0.1,0.8-0.2c0.1,0,0.2-0.1,0.4-0.1c0.4-0.1,0.8-0.2,1.1-0.2
					c0,0,0,0,0,0c0.3-0.1,0.7-0.1,1-0.1c0.1,0,0.2,0,0.3,0c0.2,0,0.5,0,0.7,0c0.1,0,0.2,0,0.3,0c0,0,0,0,0,0
					c0.1,0.2,0.2,0.3,0.3,0.5c0.1,0.2,0.2,0.3,0.2,0.5c0.1,0.2,0.1,0.3,0.2,0.5c0.1,0.2,0.2,0.4,0.2,0.6c0.1,0.2,0.1,0.3,0.2,0.5
					c0.1,0.2,0.1,0.4,0.2,0.6c0.1,0.2,0.1,0.4,0.2,0.6c0.1,0.2,0.1,0.4,0.2,0.6c0,0.2,0.1,0.4,0.1,0.6c0.1,0.2,0.1,0.4,0.2,0.7
					c0,0.2,0.1,0.4,0.1,0.6c0,0.2,0.1,0.4,0.1,0.7c0,0.3,0.1,0.6,0.1,0.9c0,0.1,0,0.3,0.1,0.4c0,0.4,0.1,0.9,0.1,1.3
					c0,0,0,0.1,0,0.1c0,0.5,0,1,0,1.5c0,0.4,0,0.9,0,1.3c0,0.1,0,0.3,0,0.4c0,0.3,0,0.6,0,0.9c0,0.2,0,0.3,0,0.5
					c0,0.3,0,0.5-0.1,0.8c0,0.2,0,0.4-0.1,0.5c0,0.2-0.1,0.5-0.1,0.7c-0.1,0.4-0.1,0.7-0.2,1.1c0,0.2-0.1,0.3-0.1,0.5
					c-0.1,0.5-0.2,1.1-0.3,1.6c0,0.1-0.1,0.2-0.1,0.3c-0.1,0.4-0.2,0.7-0.3,1.1c0,0.2-0.1,0.4-0.1,0.5c-0.1,0.3-0.2,0.6-0.2,0.9
					c0,0,0,0,0,0c-0.2,0.8-0.5,1.6-0.7,2.3c0,0.1-0.1,0.2-0.1,0.3c-0.2,0.7-0.5,1.5-0.8,2.2c-0.1,0.2-0.1,0.3-0.2,0.5
					c-0.2,0.5-0.4,1.1-0.6,1.6c-0.1,0.2-0.2,0.5-0.3,0.7c-0.2,0.4-0.4,0.9-0.6,1.3c-0.1,0.3-0.3,0.6-0.4,0.8c-0.2,0.5-0.5,1-0.7,1.5
					l0,0l0,0l0,0c0,0,0,0,0,0l11.6,6.7c0.2,0,0.4,0.1,0.6,0.1c0.1,0.1,0.2,0.2,0.3,0.4c0.2,0.2,0.3,0.5,0.5,0.7
					c0.1,0.2,0.3,0.4,0.4,0.6c0.1,0.2,0.3,0.5,0.4,0.7c0.1,0.2,0.3,0.4,0.4,0.7c0.1,0.3,0.3,0.5,0.4,0.8c0.1,0.2,0.2,0.4,0.3,0.6
					c0.1,0.3,0.2,0.6,0.4,0.9c0.1,0.2,0.2,0.4,0.3,0.7c0.1,0.2,0.2,0.5,0.3,0.8c0.1,0.3,0.2,0.6,0.3,0.9c0.1,0.2,0.1,0.5,0.2,0.7
					c0.1,0.3,0.2,0.7,0.3,1c0,0.2,0.1,0.4,0.1,0.6c0.1,0.4,0.2,0.8,0.3,1.2c0,0.1,0,0.3,0.1,0.4c0.1,0.5,0.2,1,0.3,1.5
					c0.2,1.1,0.3,2.2,0.3,3.4c0.1,0.9,0.1,1.8,0.1,2.8c0,0.6,0,1.3,0,1.9c0,0.2,0,0.4,0,0.6c0,0.4,0,0.8-0.1,1.3
					c0,0.3,0,0.5-0.1,0.8c0,0.4-0.1,0.8-0.1,1.2c0,0.3-0.1,0.5-0.1,0.8c0,0.3-0.1,0.7-0.1,1c-0.1,0.6-0.2,1.3-0.3,1.9
					c0,0.2,0,0.3-0.1,0.5c-0.1,0.8-0.3,1.6-0.5,2.4c-0.1,0.3-0.1,0.6-0.2,1c-0.1,0.4-0.2,0.7-0.3,1.1c-0.1,0.3-0.2,0.7-0.3,1
					c-0.1,0.4-0.2,0.7-0.3,1.1c-0.2,0.7-0.4,1.4-0.6,2.1c-0.5,0.7-1,1.4-1.5,2.1c-0.3,0.4-0.6,0.8-0.9,1.3c-0.3,0.4-0.6,0.8-0.9,1.3
					c-0.3,0.4-0.6,0.8-0.9,1.2c-0.3,0.4-0.6,0.8-0.9,1.2c-0.4,0.6-0.9,1.1-1.3,1.6c-0.3,0.3-0.5,0.6-0.8,1c-0.5,0.6-1,1.2-1.6,1.9
					c-0.2,0.2-0.4,0.5-0.6,0.7c-0.1,0.1-0.2,0.2-0.3,0.4c-0.5,0.6-1,1.1-1.5,1.7c-0.2,0.2-0.4,0.4-0.5,0.6c-0.5,0.5-1,1.1-1.5,1.6
					c-0.1,0.1-0.2,0.3-0.4,0.4c-0.6,0.6-1.2,1.2-1.9,1.9c-0.4,0.4-0.8,0.8-1.2,1.1c-0.3,0.3-0.7,0.7-1,1c-0.4,0.4-0.8,0.7-1.2,1.1
					c-0.3,0.3-0.7,0.6-1,0.9c-0.4,0.4-0.8,0.7-1.2,1.1c-0.3,0.3-0.7,0.6-1,0.9c-0.4,0.4-0.9,0.7-1.3,1c-0.3,0.3-0.7,0.5-1,0.8
					c-0.4,0.3-0.9,0.7-1.3,1c-0.3,0.2-0.7,0.5-1,0.7c-0.5,0.3-0.9,0.7-1.4,1c-0.3,0.2-0.6,0.4-0.9,0.7c-0.5,0.4-1.1,0.7-1.6,1
					c-0.3,0.2-0.5,0.4-0.8,0.5c-0.8,0.5-1.6,1-2.4,1.5c-0.7,0.4-1.5,0.8-2.2,1.2c-0.2,0.1-0.5,0.2-0.7,0.4c-0.5,0.3-1,0.5-1.5,0.8
					c-0.3,0.1-0.5,0.3-0.8,0.4c-0.5,0.2-0.9,0.4-1.4,0.6c-0.3,0.1-0.5,0.2-0.8,0.4c-0.6,0.2-1.2,0.5-1.7,0.7c-0.1,0-0.2,0.1-0.3,0.1
					c-0.7,0.3-1.4,0.5-2,0.7c-0.2,0.1-0.4,0.1-0.5,0.2c-0.5,0.2-1.1,0.3-1.6,0.5c-0.2,0-0.3,0.1-0.5,0.1c-0.6,0.2-1.3,0.3-1.9,0.5
					c-0.1,0-0.2,0.1-0.3,0.1c-0.6,0.1-1.3,0.3-1.9,0.4c-0.1,0-0.2,0-0.2,0c-0.5,0.1-0.9,0.1-1.4,0.2c-0.3,0-0.7,0.1-1,0.1
					c-0.4,0-0.7,0.1-1.1,0.1c-0.3,0-0.7,0.1-1,0.1c-0.4,0-0.7,0-1.1,0c-0.1,0-0.2,0-0.3,0c-0.7-2.9-1.1-6.1-1.1-9.7
					c0-0.7,0-1.5,0-2.2c0-0.2,0-0.4,0-0.6c0-0.6,0.1-1.1,0.1-1.7c0-0.2,0-0.4,0-0.6c0.1-0.7,0.1-1.5,0.2-2.2
					c0.1-0.5,0.2-1.1,0.2-1.6c0-0.3,0.1-0.6,0.1-0.9c0.1-0.7,0.2-1.3,0.4-2c0-0.2,0.1-0.4,0.1-0.6c0-0.1,0-0.1,0-0.2
					c0.2-0.7,0.3-1.4,0.5-2.2c0.1-0.3,0.1-0.5,0.2-0.8c0.1-0.5,0.3-1.1,0.4-1.6c0.1-0.2,0.1-0.5,0.2-0.7c0.2-0.6,0.4-1.2,0.6-1.8
					c0.1-0.2,0.1-0.3,0.2-0.5c0.2-0.7,0.5-1.5,0.8-2.2c0.1-0.2,0.1-0.4,0.2-0.5c0.2-0.6,0.5-1.3,0.7-1.9c0.1-0.1,0.1-0.3,0.2-0.4
					c0.3-0.7,0.6-1.4,0.9-2.1c0.4-1,0.9-1.9,1.3-2.9c0.1-0.2,0.2-0.4,0.3-0.6c0.4-0.8,0.8-1.6,1.2-2.3c0.2-0.3,0.3-0.6,0.5-0.9
					c0.4-0.7,0.7-1.4,1.1-2c0.2-0.3,0.3-0.6,0.5-0.9c0.6-0.9,1.1-1.9,1.7-2.8c0,0,0,0,0-0.1c0.6-0.9,1.2-1.9,1.9-2.8
					c0.1-0.2,0.3-0.4,0.4-0.6c0.2-0.3,0.4-0.5,0.6-0.8c0.2-0.3,0.5-0.7,0.7-1c0.2-0.3,0.4-0.5,0.6-0.8c0.4-0.5,0.7-0.9,1.1-1.4
					C467.5,863.7,465.2,858.5,465.2,851.4z"/>
				<path class="st9" d="M529.9,776.1c0.2,0,0.3,0.1,0.5,0.1c0.6,0.1,1.2,0.3,1.7,0.4c0,0,0.1,0,0.1,0c0.5,0.2,1,0.3,1.5,0.5
					c0.2,0.1,0.3,0.1,0.5,0.2c0.5,0.2,0.9,0.3,1.3,0.5c0.1,0,0.2,0.1,0.3,0.1c0.5,0.2,1.1,0.5,1.6,0.7c0.1,0.1,0.3,0.1,0.4,0.2
					c0.4,0.2,0.8,0.4,1.2,0.6c0.2,0.1,0.4,0.2,0.6,0.4l0,0c0,0,0,0,0,0l-11.6-6.7c-0.1-0.1-0.3-0.1-0.4-0.2c-0.1,0-0.2-0.1-0.3-0.1
					c-0.4-0.2-0.8-0.4-1.2-0.6c-0.1-0.1-0.3-0.1-0.4-0.2c-0.5-0.3-1-0.5-1.6-0.7c0,0-0.1,0-0.1,0c-0.1,0-0.2-0.1-0.2-0.1
					c-0.4-0.2-0.9-0.4-1.3-0.5c-0.2-0.1-0.3-0.1-0.5-0.2c-0.5-0.2-1-0.3-1.5-0.5c0,0-0.1,0-0.1,0c0,0,0,0,0,0
					c-0.6-0.2-1.1-0.3-1.7-0.4c-0.2,0-0.3-0.1-0.5-0.1c-0.5-0.1-0.9-0.2-1.4-0.3c-0.1,0-0.2,0-0.3-0.1c0,0-0.1,0-0.1,0
					c-0.6-0.1-1.2-0.2-1.8-0.3c-0.1,0-0.3,0-0.4,0c-0.5-0.1-1-0.1-1.6-0.1c-0.1,0-0.2,0-0.3,0c-0.1,0-0.1,0-0.2,0
					c-0.7,0-1.3-0.1-2-0.1c-0.1,0-0.3,0-0.4,0c-0.6,0-1.2,0-1.8,0c-0.1,0-0.2,0-0.3,0c0,0-0.1,0-0.1,0c-0.7,0-1.5,0.1-2.2,0.2
					c-0.2,0-0.3,0-0.5,0c-0.8,0.1-1.6,0.2-2.4,0.3c0,0,0,0,0,0c-0.5,0.1-1,0.2-1.6,0.3c-0.2,0-0.3,0.1-0.5,0.1
					c-0.4,0.1-0.7,0.1-1.1,0.2c-0.2,0-0.4,0.1-0.6,0.1c-0.3,0.1-0.7,0.1-1,0.2c-0.2,0.1-0.5,0.1-0.7,0.2c-0.2,0.1-0.5,0.1-0.7,0.2
					c-0.1,0-0.1,0-0.2,0.1c-0.5,0.1-1,0.3-1.5,0.4c-0.1,0-0.2,0.1-0.3,0.1c-0.6,0.2-1.3,0.4-1.9,0.6c-0.2,0.1-0.4,0.1-0.5,0.2
					c-0.5,0.2-0.9,0.3-1.4,0.5c-0.2,0.1-0.5,0.2-0.7,0.3c-0.4,0.2-0.8,0.3-1.3,0.5c-0.1,0.1-0.3,0.1-0.4,0.2c-0.1,0-0.2,0.1-0.3,0.1
					c-0.6,0.3-1.2,0.5-1.8,0.8c-0.1,0.1-0.2,0.1-0.4,0.2c-0.7,0.3-1.5,0.7-2.2,1c-0.2,0.1-0.4,0.2-0.6,0.3c-0.6,0.3-1.1,0.6-1.7,0.9
					c-0.2,0.1-0.4,0.2-0.6,0.3c-0.7,0.4-1.5,0.8-2.2,1.2c-0.9,0.5-1.9,1.1-2.8,1.7c-0.2,0.1-0.3,0.2-0.5,0.3
					c-0.9,0.6-1.8,1.1-2.6,1.7c-0.2,0.1-0.3,0.2-0.5,0.3c-0.9,0.6-1.8,1.2-2.7,1.9c-0.1,0.1-0.2,0.1-0.2,0.2
					c-0.8,0.6-1.7,1.3-2.5,1.9c-0.1,0.1-0.3,0.2-0.4,0.3c-0.9,0.7-1.7,1.3-2.5,2c-0.2,0.1-0.3,0.3-0.5,0.4c-0.8,0.7-1.7,1.4-2.5,2.1
					c-0.1,0.1-0.2,0.2-0.3,0.3c-0.8,0.7-1.6,1.4-2.4,2.2c-0.1,0.1-0.2,0.1-0.2,0.2c-0.8,0.8-1.6,1.6-2.4,2.3
					c-0.1,0.1-0.2,0.2-0.3,0.2c-0.1,0.1-0.2,0.2-0.3,0.3c-0.4,0.4-0.8,0.8-1.3,1.3c-0.2,0.2-0.4,0.4-0.5,0.6
					c-0.6,0.6-1.2,1.2-1.8,1.9c-0.1,0.1-0.1,0.1-0.2,0.2c-0.5,0.6-1.1,1.1-1.6,1.7c-0.2,0.2-0.4,0.4-0.6,0.6
					c-0.4,0.4-0.8,0.9-1.2,1.3c-0.1,0.1-0.2,0.2-0.3,0.3c-0.1,0.1-0.1,0.2-0.2,0.2c-0.8,1-1.7,2-2.5,3c-0.1,0.2-0.2,0.3-0.4,0.5
					c-0.8,1-1.7,2-2.5,3.1c0,0.1-0.1,0.1-0.1,0.2c-0.1,0.1-0.2,0.2-0.2,0.3c-0.7,0.9-1.4,1.8-2.1,2.8c0,0,0,0,0,0.1
					c-0.7,0.9-1.4,1.9-2.1,2.9c-0.1,0.1-0.2,0.2-0.2,0.3c-0.1,0.1-0.1,0.2-0.2,0.2c-0.6,0.9-1.2,1.7-1.8,2.6
					c-0.1,0.2-0.2,0.3-0.3,0.5c-0.5,0.8-1,1.6-1.5,2.4c-0.1,0.1-0.2,0.2-0.2,0.4c0,0.1-0.1,0.1-0.1,0.2c-0.5,0.9-1.1,1.7-1.6,2.6
					c-0.1,0.2-0.2,0.4-0.3,0.5c-0.4,0.7-0.9,1.5-1.3,2.2c-0.1,0.1-0.2,0.3-0.2,0.4c0,0.1-0.1,0.2-0.1,0.3c-0.5,0.9-1,1.7-1.5,2.6
					c-0.1,0.1-0.1,0.3-0.2,0.4c-0.4,0.8-0.8,1.5-1.3,2.3c-0.1,0.1-0.1,0.3-0.2,0.4c-0.1,0.1-0.1,0.2-0.2,0.4
					c-0.4,0.8-0.8,1.6-1.2,2.4c0,0.1-0.1,0.2-0.1,0.3c-0.4,0.9-0.9,1.8-1.3,2.7c0,0.1-0.1,0.2-0.1,0.3c-0.1,0.1-0.1,0.3-0.2,0.4
					c-0.3,0.7-0.7,1.5-1,2.2c-0.1,0.2-0.2,0.4-0.3,0.6c-0.4,0.9-0.8,1.8-1.2,2.7c0,0.1,0,0.1-0.1,0.2c-0.1,0.1-0.1,0.3-0.2,0.4
					c-0.3,0.8-0.7,1.5-1,2.3c-0.1,0.2-0.2,0.5-0.3,0.7c-0.4,0.9-0.7,1.9-1.1,2.8c0,0,0,0.1,0,0.1c0,0.1-0.1,0.2-0.1,0.3
					c-0.3,0.9-0.7,1.8-1,2.6c-0.1,0.2-0.2,0.5-0.3,0.7c-0.3,1-0.7,1.9-1,2.9c0,0,0,0.1,0,0.1c0,0.1-0.1,0.2-0.1,0.3
					c-0.3,1-0.6,2-0.9,2.9c-0.1,0.2-0.1,0.4-0.2,0.5c-0.3,1-0.6,2.1-0.9,3.1c0,0.1-0.1,0.2-0.1,0.3c0,0.1-0.1,0.2-0.1,0.3
					c-0.3,1.2-0.6,2.4-0.9,3.5c0,0.2-0.1,0.3-0.1,0.5c-0.3,1.2-0.6,2.5-0.8,3.7c0,0,0,0,0,0.1c0,0.2-0.1,0.4-0.1,0.5
					c-0.1,0.6-0.2,1.1-0.3,1.7c-0.1,0.3-0.1,0.6-0.2,0.9c-0.1,0.5-0.2,1-0.3,1.5c-0.1,0.3-0.1,0.6-0.2,0.9c-0.1,0.5-0.2,0.9-0.2,1.4
					c0,0.3-0.1,0.6-0.1,1c-0.1,0.5-0.1,0.9-0.2,1.4c0,0.2-0.1,0.3-0.1,0.5c0,0.1,0,0.2,0,0.3c-0.1,1-0.2,2-0.3,3c0,0.1,0,0.3,0,0.4
					c-0.1,0.9-0.2,1.9-0.2,2.8c0,0.2,0,0.3,0,0.5c-0.1,1-0.1,2-0.1,3c0,0.2,0,0.4,0,0.6c0,1,0,2,0,3c0.1,21.1,7.2,36.3,18.8,44
					c0.6,0.4,1.1,0.7,1.7,1l11.6,6.7c-0.6-0.3-1.1-0.7-1.7-1c-11.6-7.7-18.7-22.8-18.8-44c0-1,0-2,0-3c0-0.2,0-0.4,0-0.6
					c0-1,0.1-2,0.1-3c0-0.2,0-0.3,0-0.5c0.1-0.9,0.1-1.9,0.2-2.8c0-0.1,0-0.3,0-0.4c0.1-1,0.2-2,0.3-3c0-0.3,0.1-0.6,0.1-0.8
					c0.1-0.5,0.1-0.9,0.2-1.4c0-0.3,0.1-0.6,0.1-1c0.1-0.5,0.1-0.9,0.2-1.4c0.1-0.3,0.1-0.6,0.2-0.9c0.1-0.5,0.2-1,0.3-1.5
					c0.1-0.3,0.1-0.6,0.2-0.9c0.1-0.6,0.2-1.1,0.3-1.7c0-0.2,0.1-0.4,0.1-0.6c0.3-1.2,0.5-2.4,0.8-3.7c0-0.2,0.1-0.3,0.1-0.5
					c0.3-1.2,0.6-2.4,0.9-3.5c0.1-0.2,0.1-0.4,0.2-0.6c0.3-1,0.6-2.1,0.9-3.1c0.1-0.2,0.1-0.4,0.2-0.5c0.3-1,0.6-2,0.9-2.9
					c0-0.1,0.1-0.3,0.1-0.4c0.3-1,0.7-1.9,1-2.9c0.1-0.2,0.2-0.5,0.3-0.7c0.3-0.9,0.6-1.8,1-2.6c0-0.1,0.1-0.2,0.1-0.4
					c0.4-0.9,0.7-1.9,1.1-2.8c0.1-0.2,0.2-0.5,0.3-0.7c0.3-0.8,0.6-1.5,1-2.3c0.1-0.2,0.2-0.4,0.2-0.6c0.4-0.9,0.8-1.8,1.2-2.7
					c0.1-0.2,0.2-0.4,0.3-0.6c0.3-0.7,0.7-1.4,1-2.2c0.1-0.2,0.2-0.5,0.3-0.7c0.4-0.9,0.9-1.8,1.3-2.7c0-0.1,0.1-0.2,0.1-0.3
					c0.4-0.8,0.8-1.6,1.2-2.4c0.1-0.2,0.3-0.5,0.4-0.7c0.4-0.8,0.8-1.5,1.3-2.3c0.1-0.1,0.1-0.3,0.2-0.4c0.5-0.9,1-1.7,1.5-2.6
					c0.1-0.2,0.3-0.4,0.4-0.7c0.4-0.7,0.9-1.5,1.3-2.2c0.1-0.2,0.2-0.4,0.3-0.5c0.5-0.9,1.1-1.7,1.6-2.6c0.1-0.2,0.2-0.4,0.4-0.6
					c0.5-0.8,1-1.6,1.5-2.4c0.1-0.2,0.2-0.3,0.3-0.5c0.6-0.9,1.2-1.8,1.8-2.6c0.1-0.2,0.3-0.4,0.4-0.6c0.7-1,1.4-1.9,2.1-2.9
					c0,0,0,0,0-0.1c0.7-0.9,1.4-1.9,2.1-2.8c0.1-0.2,0.2-0.3,0.4-0.5c0.8-1,1.6-2.1,2.5-3.1c0.1-0.2,0.2-0.3,0.4-0.5
					c0.8-1,1.7-2,2.5-3c0.2-0.2,0.3-0.4,0.5-0.6c0.4-0.4,0.8-0.9,1.2-1.3c0.2-0.2,0.4-0.4,0.6-0.6c0.5-0.6,1-1.1,1.6-1.7
					c0.1-0.1,0.1-0.1,0.2-0.2c0.6-0.6,1.2-1.2,1.8-1.9c0.2-0.2,0.4-0.4,0.5-0.6c0.4-0.4,0.8-0.9,1.3-1.3c0.2-0.2,0.4-0.4,0.5-0.5
					c0.8-0.8,1.6-1.6,2.4-2.3c0.1-0.1,0.2-0.2,0.2-0.2c0.8-0.7,1.6-1.5,2.4-2.2c0.1-0.1,0.2-0.2,0.4-0.3c0.8-0.7,1.7-1.4,2.5-2.1
					c0.2-0.1,0.3-0.3,0.5-0.4c0.8-0.7,1.7-1.4,2.5-2c0.1-0.1,0.3-0.2,0.4-0.3c0.8-0.6,1.7-1.3,2.5-1.9c0.1-0.1,0.2-0.1,0.2-0.2
					c0.9-0.6,1.8-1.3,2.7-1.9c0.2-0.1,0.3-0.2,0.5-0.3c0.9-0.6,1.7-1.2,2.6-1.7c0.2-0.1,0.3-0.2,0.5-0.3c0.9-0.6,1.8-1.1,2.8-1.7
					c0.7-0.4,1.5-0.8,2.2-1.2c0.2-0.1,0.4-0.2,0.6-0.3c0.6-0.3,1.1-0.6,1.7-0.9c0.2-0.1,0.4-0.2,0.6-0.3c0.7-0.4,1.5-0.7,2.2-1
					c0.1-0.1,0.2-0.1,0.4-0.2c0.6-0.3,1.2-0.5,1.8-0.8c0.2-0.1,0.5-0.2,0.7-0.3c0.4-0.2,0.8-0.3,1.3-0.5c0.2-0.1,0.5-0.2,0.7-0.3
					c0.5-0.2,0.9-0.3,1.4-0.5c0.2-0.1,0.4-0.1,0.5-0.2c0.6-0.2,1.3-0.4,1.9-0.6c0.1,0,0.2-0.1,0.3-0.1c0.5-0.2,1-0.3,1.5-0.4
					c0.3-0.1,0.6-0.2,0.9-0.2c0.2-0.1,0.5-0.1,0.7-0.2c0.3-0.1,0.7-0.2,1-0.2c0.2,0,0.4-0.1,0.6-0.1c0.4-0.1,0.7-0.2,1.1-0.2
					c0.2,0,0.3-0.1,0.5-0.1c0.5-0.1,1.1-0.2,1.6-0.3c0.8-0.1,1.6-0.2,2.4-0.3c0.2,0,0.3,0,0.5,0c0.8-0.1,1.5-0.1,2.2-0.2
					c0.1,0,0.3,0,0.4,0c0.6,0,1.2,0,1.8,0c0.1,0,0.3,0,0.4,0c0.7,0,1.3,0,2,0.1c0.2,0,0.3,0,0.5,0c0.5,0,1,0.1,1.6,0.1
					c0.1,0,0.3,0,0.4,0c0.6,0.1,1.2,0.2,1.8,0.3c0.1,0,0.3,0.1,0.4,0.1C528.9,775.9,529.4,776,529.9,776.1z"/>
			</g>
			<g>
				<path class="st6" d="M490.3,808c13.9-8,25.2-1.6,25.2,14.4c0,7.3-2.3,15.3-6.2,22.6c1.7,0.2,3.3,0.6,4.7,1.2
					c8,3.2,13,11.9,13.1,24.9c0,6-1,12.3-3,18.5c-9.4,13.8-21.2,25.6-34,33s-24.7,9.2-34.1,6.3c-2-4-3-9.1-3.1-15.1
					c0-12.9,5-27.5,12.9-39.9c1.6-2.6,3.4-5.1,5.3-7.4c-3.7-2.9-5.9-8.1-6-15.2C465.2,835.5,476.4,816,490.3,808z"/>
			</g>
		</g>
		<g>
			<g>
				<path class="st10" d="M401.1,945c0,0-2.8-30,1.2-39c4-9,9.3-14.3,9.3-14.3s3.5,0.8,3.5,7.3s0.5,20.3,1.8,20.3
					c1.3,0,5.3-8.5,5.5-4.8s-2.5,6.5-2,10.8s2.7,19.3,2.7,19.3L401.1,945z"/>
			</g>
			<g>
				<g>
					<path class="st10" d="M571.3,896.6c0,0-14.9-24.4-22.5-29.5c-7.6-5.1-13.9-6.7-13.9-6.7s-1.9,2.2,1.8,7.2s11,15.9,10.2,16.5
						c-0.8,0.6-8.1-4.1-6.2-1.1c1.9,3,5.2,3.9,7.3,7.4c2,3.5,9,16.1,9,16.1L571.3,896.6z"/>
				</g>
				<g>
					<g>
						<g>
							<g>
								<path class="st11" d="M503.8,1422.3c0,0-16-3.3-17.3-0.5c-1.3,2.8,0.3,6.4,3.8,8.5s22.4,10.4,26.6,10.9
									c4.1,0.5,3.4-10.4,3.4-10.4S512.5,1422.5,503.8,1422.3z"/>
							</g>
						</g>
					</g>
					<g>
						<g>
							<g>
								<path class="st11" d="M552.7,1393.1c0,0-17.9-3.5-19.3-0.5c-1.4,3,0.3,7,4.2,9.3c3.9,2.3,25,11.3,29.6,11.9
									s3.8-11.3,3.8-11.3S562.3,1393.4,552.7,1393.1z"/>
							</g>
						</g>
					</g>
					<g>
						<path class="st7" d="M486.3,1176.7c0,0-11.2,38.8-6.9,110.2l21.5,140.4l20.7,5.2l4.3-86.1l-0.9-79.2l19.8,71.5l5.2,57.1
							l21.5,8.4c0,0,8.6-50-4.3-108.5c0-2.6,0-128.3,0-128.3L486.3,1176.7z"/>
						<g>
							<path class="st10" d="M509.2,950.6c0,0-7.1,15.9-8.2,18.7c-1.1,2.8-3.9,6.2-3.9,6.2l2.2,4.5c0,0-3.7,18.1,1.3,21.5
								c5,3.4,9.5,3.7,9.5,3.7l0.9,23.9c0,0,3.2,6.7,11,3.9c7.8-2.8,11.6-6,13.1-10.3c1.5-4.3,1.7-29.7,1.9-33.8s-1.5-19.2-4.5-25.4
								s-3.9-9-8.2-10.6C519.9,951.5,509.2,950.6,509.2,950.6z"/>
						</g>
						<g>
							<g>
								<path class="st12" d="M514.3,1019.3c0,0-14,6.5-20.2,9.5c-6.2,3-8.8,4.7-12.5,4.5c-3.7-0.2-47.4-25.8-58.6-88.7l-22,0.4
									c0,0,0.9,108.5,69.8,135.2l1.3,105.5c0,0,21.5,15.1,49.1,12.1c27.6-3,50.8-34,50.8-34l-8.2-52.5l14.6-81.8
									c0,0,26.3-96.9-8.2-135.7l-17.7,6C552.7,899.8,582.8,1004,514.3,1019.3z"/>
							</g>
						</g>
						<g>
							<path class="st5" d="M503.6,953.2c0,0,1.3-12,13.6-11.3c12.3,0.6,16.1,1.9,21.3,4.8s7.1-0.3,11,5.8s5.2,9.7,5.8,17.1
								c0.6,7.4,1,12-0.6,15.5c-1.6,3.6-3.9,6.8-8.7,9.7s-7.8,15.5-11.3,15.8c-3.6,0.3-9.4,3.2-12.3-1s-6.1-9.4-1.9-12
								c4.2-2.6,6.1-5.8,5.5-9.4c-0.6-3.6-5.8-4.5-7.4-3.2c-1.6,1.3-4.5,2.3-3.9-1.9c0.6-4.2,1.9-6.8,2.3-12s-1.9-5.2-1.9-9
								s-3.2-7.1-4.5-7.1C509,955.1,503.9,956.7,503.6,953.2z"/>
						</g>
					</g>
					
						<ellipse transform="matrix(0.2073 -0.9783 0.9783 0.2073 -547.6704 1263.4796)" class="st5" cx="505.8" cy="969.7" rx="3.1" ry="1.4"/>
					
						<ellipse transform="matrix(0.2073 -0.9783 0.9783 0.2073 -546.5071 1263.2228)" class="st6" cx="506.2" cy="968.8" rx="1.2" ry="0.6"/>
					<path class="st5" d="M498.2,989.2l9.5-2.3c0,0-3.6,8-9.7,8L498.2,989.2z"/>
				</g>
			</g>
		</g>
		<g>
			<polygon class="st12" points="758.6,671.2 758.6,1016.6 605.4,1106.4 605.4,758 			"/>
			<polygon class="st1" points="631.2,899.3 631.2,888.7 736.1,828.9 736.1,839.6 			"/>
			<polygon class="st1" points="631.2,924.6 631.2,914 736.1,854.1 736.1,864.9 			"/>
			<polygon class="st1" points="631.2,949.8 631.2,939.2 736.1,879.4 736.1,890.1 			"/>
			<polygon class="st1" points="631.2,975.1 631.2,964.4 736.1,904.6 736.1,915.4 			"/>
			<polygon class="st1" points="631.2,1000.3 631.2,989.7 736.1,929.9 736.1,940.6 			"/>
			<polygon class="st1" points="631.2,1025.6 631.2,1014.9 736.1,955.1 736.1,965.9 			"/>
			<path class="st7" d="M682.7,744.3c-17.9,10.3-32.3,35.3-32.2,55.8c0,9.7,3.3,16.7,8.7,20.3c1.2,0.8,2.6,1.4,4,1.9
				c5.5,1.7,12.4,0.6,19.8-3.7c7.5-4.3,14.3-11.2,19.8-19.2c0.5-0.7,0.9-1.4,1.4-2.1c6.8-10.8,11.1-23.3,11.1-34.5
				C715.1,742.3,700.5,734,682.7,744.3z"/>
		</g>
		<g>
			<polygon class="st1" points="987.6,549 1004.3,513.2 991.9,505.4 830.9,576.8 796.7,923.5 809.1,931.3 817.2,914.1 958,849.1 			
				"/>
			<polygon class="st12" points="1004.3,513.2 970.4,857 809.1,931.3 843.3,584.6 			"/>
			<polygon class="st1" points="855.1,727.8 856.2,717.2 966.4,667.9 965.3,678.7 			"/>
			<polygon class="st1" points="852.7,752.9 853.7,742.3 963.9,693.1 962.8,703.8 			"/>
			<polygon class="st1" points="850.2,778 851.2,767.5 961.4,718.2 960.4,728.9 			"/>
			<polygon class="st1" points="847.7,803.1 848.8,792.6 958.9,743.3 957.9,754 			"/>
			<polygon class="st1" points="845.2,828.3 846.3,817.7 956.5,768.4 955.4,779.2 			"/>
			<polygon class="st1" points="842.8,853.4 843.8,842.8 954,793.6 952.9,804.3 			"/>
			<path class="st7" d="M921.5,578.5c-18.8,8.5-35.6,32-37.5,52.4c-0.9,9.7,1.7,17,6.6,21c1.1,0.9,2.4,1.7,3.8,2.3
				c5.3,2.2,12.2,1.9,20.1-1.7c7.8-3.6,15.3-9.7,21.6-17.2c0.5-0.6,1.1-1.3,1.6-2c7.8-10,13.3-22.1,14.4-33.3
				C954,579.7,940.3,570,921.5,578.5z"/>
		</g>
		<g>
			<path class="st10" d="M1057.2,1024.4c0,0-14,3.2,4.6,31.4c18.6,28.2,49.8,78.6,49.8,78.6s2.1,34.4-3.4,33.7s-9.6-23.4-8.3-26.1
				c1.4-2.8-73.6-87.3-73.6-87.3s-2.1-27.5-1.4-31.6C1025.5,1018.9,1057.2,1024.4,1057.2,1024.4z"/>
			<path class="st10" d="M1005.6,1039.5l-4.1,103.9c0,0-22,0.7-30.3-2.1c-8.3-2.8,9.6-4.8,13.1-16.5c3.4-11.7-6.9-75-6.9-75
				L1005.6,1039.5z"/>
			<path class="st5" d="M973.3,917.8c0,0-23.4,90.8-11.7,154.1l119.7-48.1l-34.4-114.9L973.3,917.8z"/>
			<path class="st7" d="M991.8,796.8l-9.6,6.9c0,0-64.2-19.6-67.6-27.2c-3.4-7.6-85.9-43.7-85.9-43.7l-5.1,14.6
				c0,0,86.4,66,125.6,79.7s28.2,8.3,28.2,8.3l-11.7,92.8c0,0,84.6,14.4,83.2-14.4c-1.4-28.9-13.1-33-10.3-66
				c2.8-33,3.5-63.9,3.5-63.9s-29.9-97.7-42.2-124.5l-12.4,8.7c0,0,13.2,99.7,26.9,110.7c13.8,11,5.6,16.8,5.6,16.8L991.8,796.8z"/>
			<g>
				<path class="st10" d="M979.9,762.8c0,0-3.6,19.4,1.5,26.6c5.1,7.2,8.7,7.5,8.7,7.5s7.2-3.3,8.7-8.1s-1.8-12.8-6-12.5
					C988.6,776.6,979.9,762.8,979.9,762.8z"/>
				<path class="st5" d="M981.4,770.3c0,0-0.3-0.4-0.7-1.2c-1.9-3.7-6.3-15,6.3-21.2c15.2-7.5,29.6-7.5,37.9,4.2
					c8.4,11.7,12,22.7,16.1,26.3c4.2,3.6,10.8,10.2,5.7,18.5c-5.1,8.4-0.9,16.7-21.5,18.2c-20.6,1.5-29,3.9-32-3.6s0-15.8,1.2-19.4
					S981.4,770.3,981.4,770.3z"/>
			</g>
			<path class="st11" d="M1105.8,1123.2l-13.2,9.5l7.2,9.4c0,0,0.6,26.6,2.7,30.7c2.1,4.1,9.9,3.7,11.6-6.2
				c1.7-9.9,3.7-24.4,2.1-30.1C1114.5,1130.6,1105.8,1123.2,1105.8,1123.2z"/>
			<path class="st5" d="M1116.4,1144c0,0-0.6-12.9-7.4-5.2c-6.9,7.7-3.9,33.3-3.9,33.3s2.3,1.7,5.6,0
				C1114.1,1170.4,1116.4,1144,1116.4,1144z"/>
			<path class="st11" d="M984.3,1124.8c0,0-34.9,10.3-30,18.2c5,7.8,51.2,9.9,51.6,8.7c0.4-1.2-3.3-32.6-3.3-32.6l-18.2,0.4
				L984.3,1124.8z"/>
		</g>
		<path class="st10" d="M828.7,732.7c0,0,8.3-6.1,3.9-11.9s-6.8,5.3-8.7,5.8c-1.9,0.5-1.5-14.6-6.8-15.5s-13.1-0.5-13.1,10.2
			c0,10.7,19.7,26,19.7,26L828.7,732.7z"/>
		<path class="st10" d="M999.8,659.2c0-0.7-8-20.6-8-19.8s-2.5,27.7-2.5,27.7L999.8,659.2z"/>
		<g>
			<path class="st5" d="M1301.9,1370.8l-21.5-26.9c-3.2-4-1.4-9.9,3.5-11.4l26.7-8.6c2.9-0.9,6.1,0,7.9,2.4l35.8,45.7
				c3,3.8,1.4,9.5-3.1,11.2l-22.9,8.9c-2.8,1.1-5.9,0.4-7.9-1.8L1301.9,1370.8z"/>
			<polygon class="st6" points="1281.9,1337.7 1293.1,1334.1 1294.9,1336.2 1308.9,1331.2 1307.4,1329.5 1315.7,1326.5 
				1352.5,1373.6 1318.4,1386.1 			"/>
			<g>
				<g>
					<g>
						<path class="st5" d="M1455.1,1779.4c-4.1,0.5-33.5,8.8-33.1,17.2l67.2,6.8l0.5-12c0,0-21.8-17.1-32.5-12.8L1455.1,1779.4"/>
						<path class="st5" d="M1500.7,1754.1c-4.1,0.5-33.5,8.8-33.1,17.2l67.2,6.8l0.5-12c0,0-21.8-17.1-32.5-12.8L1500.7,1754.1"/>
						<path class="st10" d="M1509.7,1305c-6.6,13.1-32.8,8.9-32.8,8.9l-2.4-12.5c0,0-5.4,1.2-16.1-14.3c-2.2-3.2-3.6-7.1-4.4-11.3
							l-4.1-1.7l3.2-5.6c-0.8-15,3.4-30.8,3.4-30.8s19.1-1.8,21.5-1.8c2.4,0,16.1,2.4,24.4,5.4c8.4,3,5.4,15.5,5.4,26.8
							C1507.9,1279.3,1509.7,1305,1509.7,1305z"/>
						<path class="st10" d="M1355.2,1401c0,0-13.9-13.9-18.3-21.5s-11.9-13.9-12.3-9.9c-0.4,4,5.6,10.3,3.2,10.3s-9.1-5.2-15.9-7.2
							s-11.1-6-9.9-2c1.2,4,4.8,6,6.4,13.1s6,17.9,15.9,20.3s19.1,2.4,21.9,5.2C1348.9,1412.1,1355.2,1401,1355.2,1401z"/>
						<path class="st5" d="M1447.7,1232.2c0,0,46.5-41.7,69.8-11.3c23.3,30.4,12.5,56.7-1.8,63.8c-14.3,7.2-28.6,10.1-28.6,6.6
							c0-3.6-1.2-13.1,1.2-19.7c2.4-6.6,9.5-14.3,3-15.5c-6.6-1.2-12.5,4.2-12.5,4.2s-2.4-9.5-4.8-12.5s-6.6-1.2-15.5-1.8
							C1449.4,1245.3,1439.3,1240.6,1447.7,1232.2z"/>
						<path class="st11" d="M1542.9,1514.5c-15,2.3-62.7,7.9-88.2-6.3l-10.4,103.7c0,0,10.7,165.8,10.7,167.6s34.6,11.9,34.6,11.9
							s1.8-148.5,1.2-156.9c-0.6-8.3,4.2-32.2,4.2-32.2s6,145.5,6,147.3c0,1.8,32.8,16.1,34.6,16.7c1.8,0.6,0.6-162.8,0.6-164.6
							C1536.2,1600.2,1541.4,1534.6,1542.9,1514.5z"/>
						<path class="st7" d="M1570.8,1378c0-3.6-5.4-56.1-9.5-65c-4.2-8.9-32.2-6-32.2-6s-3-1.8-5.4-7.2c-2.4-5.4-16.1-5.4-16.1-5.4
							c-38.8,6.6-40,24.5-40,24.5c-14.3,5.4-19.7,14.9-19.7,14.9l-39.4,71.6l-50.7-16.1c-13.7,0-11.9,20.3-11.9,20.3
							c21.5,16.1,77.5,26.2,77.5,26.2l34-29.2c0,0-14.3,102-14.3,103.8c0,1.8,11.9,2.4,11.9,2.4s40,8.9,53.7,8.6
							c13.7-0.3,34.6-4.5,34.6-4.5l19.1-9.5c0,0-15.5-53.1-15.5-55.5c0-2.4,17.3-24.5,20.3-29.8
							C1570.2,1416.8,1570.8,1381.6,1570.8,1378z"/>
					</g>
					<ellipse class="st13" cx="1458.7" cy="1261.7" rx="1.7" ry="4.1"/>
					<path class="st13" d="M1459.1,1285l7.8-6.4C1466.8,1278.6,1471.8,1299.4,1459.1,1285z"/>
				</g>
				<path class="st14" d="M1547,1452l7.2-124.7c0,0,5.4,21.6,5.8,35.4C1560.4,1376.4,1547,1452,1547,1452z"/>
			</g>
		</g>
		<path class="st12" d="M1598.9,736.7c-112.2,0-203.2,91-203.2,203.2c0,62.7,28.4,118.7,73,156l-141.8,255.9l190.7-225.6
			c24.9,10.9,52.4,17,81.3,17c112.2,0,203.2-91,203.2-203.2S1711.1,736.7,1598.9,736.7z"/>
		<g>
			<path class="st4" d="M1657.1,818.6l-100.8-38.2c-2.8-1.1-5.7-0.7-8.1,0.6l-15.8,7.6l10.8,29.9V1034c0,4,2.5,7.6,6.2,9l86.5,32.8
				l6.2,12.5l12.3-6.1c0,0,9-3.9,8.8-10.1V827.6C1663.3,823.6,1660.8,820,1657.1,818.6z"/>
			<path class="st5" d="M1634.2,1088.8l-100.8-38.2c-3.8-1.4-6.2-5-6.2-9V797c0-6.8,6.8-11.4,13.1-9l100.8,38.2c3.8,1.4,6.2,5,6.2,9
				v244.5C1647.3,1086.5,1640.6,1091.2,1634.2,1088.8z"/>
			<polygon class="st6" points="1644.9,1058.5 1530.5,1017.4 1530.5,810.3 1644.9,851.5 			"/>
			<path class="st15" d="M1613.2,831.1l-54.2-20c-1-0.4-1.5-1.5-1.1-2.4l0,0c0.4-1,1.5-1.5,2.4-1.1l54.2,20c1,0.4,1.5,1.5,1.1,2.4
				l0,0C1615.2,830.9,1614.2,831.4,1613.2,831.1z"/>
			<path class="st5" d="M1655.5,906.8L1655.5,906.8c-1.2,0-2.1-1-2.1-2.1v-52.8c0-1.2,1-2.1,2.1-2.1l0,0c1.2,0,2.1,1,2.1,2.1v52.8
				C1657.6,905.9,1656.7,906.8,1655.5,906.8z"/>
			<polygon class="st4" points="1530.5,945 1644.7,916.2 1644.7,1058.5 1530.5,1017.4 			"/>
			<g>
				<circle class="st7" cx="1588.2" cy="867.1" r="15.3"/>
				<path class="st6" d="M1593.2,866.7c-0.3-0.3-0.7-0.5-1-0.7c0.8-1,1.4-2.2,1.4-3.6c0-3-2.4-5.5-5.5-5.5c-3,0-5.5,2.4-5.5,5.5
					c0,1.3,0.5,2.6,1.3,3.5c-0.4,0.2-0.8,0.5-1.2,0.8c-1.7,1.5-2.8,3.7-2.8,6.1c0,1.1,0.2,2.2,0.7,3.2c2,1.6,4.6,2.5,7.4,2.5
					s5.4-0.9,7.4-2.5c0.4-1,0.7-2.1,0.7-3.2C1596,870.4,1594.9,868.2,1593.2,866.7z"/>
			</g>
			<polygon class="st12" points="1558.5,888.2 1558.5,1004.8 1610.3,1020.7 1610.3,902 			"/>
			<polygon class="st1" points="1564.3,942 1564.3,944.9 1602.4,956.6 1602.4,953.6 			"/>
			<polygon class="st1" points="1564.3,947.6 1564.3,950.4 1602.4,962.1 1602.4,959.1 			"/>
			<polygon class="st1" points="1564.3,953.1 1564.3,956 1602.4,967.6 1602.4,964.6 			"/>
			<polygon class="st1" points="1564.3,958.6 1564.3,961.5 1602.4,973.1 1602.4,970.2 			"/>
			<polygon class="st1" points="1564.3,964.1 1564.3,967 1602.4,978.7 1602.4,975.7 			"/>
			<polygon class="st1" points="1564.3,969.6 1564.3,972.5 1602.4,984.2 1602.4,981.2 			"/>
			<circle class="st7" cx="1584.1" cy="923.3" r="13.3"/>
			<ellipse class="st6" cx="1579.5" cy="1053.3" rx="7.2" ry="8.5"/>
		</g>
		<g>
			<g>
				<g>
					<path class="st5" d="M1390.5,514.9l-223.1-80.3c-2.1-0.7-4.1-0.5-5.8,0.3l-0.1,0l-0.6,0.4c-0.1,0.1-0.3,0.2-0.4,0.3l-16.2,11.5
						l13.4,18.6V670c0,3.4,2.3,6.6,5.6,7.8l198.6,73.6l14.4,20.4l17.8-12.5l0-0.3c1.2-1.2,2-2.9,2-4.9V522.7
						C1396.1,519.3,1393.9,516.1,1390.5,514.9z"/>
				</g>
			</g>
			<path class="st5" d="M1258.5,841.6l41.4-23.7l30.6-71.4l-31.3-12.4c0,0-15.3,25.5-16.8,29.1C1281,767,1258.5,841.6,1258.5,841.6z
				"/>
			<path class="st11" d="M1380.1,534.3v231.2c0,5.1-4.8,8.3-9.7,6.4l-66.1-24.5l-45.9,94.2l-15.3-117l-95.8-35.6
				c-3.3-1.2-5.6-4.4-5.6-7.8V452.6c0-5,4.8-8.2,9.7-6.5l223.1,80.4C1377.9,527.7,1380.1,530.9,1380.1,534.3z"/>
			<g>
				<polygon class="st6" points="1234.9,638.7 1231,635.1 1275.4,566.1 1279.4,569.7 				"/>
				<polygon class="st6" points="1290.5,586.9 1290.7,592.6 1328.1,626.5 1292.1,632 1292.3,637.1 1338.2,630.2 				"/>
				<polygon class="st6" points="1220.4,567.8 1220.7,573.6 1185.3,588.1 1222.5,613.4 1222.8,618.6 1175.3,586.4 				"/>
			</g>
		</g>
		<g>
			<g>
				<g>
					<path class="st14" d="M1622.9,430.7l-159-57.2c-1.5-0.5-2.9-0.4-4.1,0.2l-0.1,0l-0.4,0.3c-0.1,0.1-0.2,0.1-0.3,0.2l-11.5,8.2
						l9.6,13.3v145.7c0,2.4,1.6,4.7,4,5.6l141.6,52.5l10.3,14.5l12.7-8.9l0-0.2c0.9-0.9,1.4-2.1,1.4-3.5V436.3
						C1626.9,433.9,1625.3,431.6,1622.9,430.7z"/>
				</g>
			</g>
			<path class="st14" d="M1528.8,663.7l29.5-16.9l21.8-50.9l-22.3-8.8c0,0-10.9,18.2-11.9,20.8
				C1544.8,610.5,1528.8,663.7,1528.8,663.7z"/>
			<path class="st7" d="M1615.5,444.6v164.8c0,3.6-3.4,5.9-6.9,4.6l-47.1-17.5l-32.7,67.2l-10.9-83.4l-68.3-25.4
				c-2.4-0.9-4-3.1-4-5.6v-163c0-3.6,3.4-5.9,6.9-4.6l159,57.3C1613.9,439.9,1615.5,442.1,1615.5,444.6z"/>
		</g>
		<path class="st6" d="M1578.2,518.2v-19.3l-13.8-3.6c-0.8-3.1-2-6.1-3.5-8.9l9.7-6.9l-14.1-16.6l-9.7,6.9c-2.6-2-5.5-3.7-8.5-5.2
			v-12.6l-19.9-4.1V460c-3,0-5.8,0.4-8.4,1.1l-9.7-10.6l-14.1,8.7l9.7,10.6c-1.5,1.9-2.7,4-3.5,6.3l-13.8-3.6V489l13.8,4
			c0.8,2.8,2,5.5,3.5,8.2l-9.7,5.2l14.1,16.6l9.7-5.2c2.6,2.2,5.5,4.1,8.4,5.9v12.2l19.9,7v-12.6c3,0.2,5.8,0.1,8.5-0.5l9.7,12.3
			l14.1-8.7l-9.7-12.3c1.5-2,2.7-4.4,3.5-7L1578.2,518.2z M1549.9,507.5c-0.3,0.7-0.7,1.4-1.1,2.1c-2.2,3.5-5.9,5.8-10.4,6.5
			c-0.8,0.1-1.7,0.2-2.6,0.2c-2.3,0-4.8-0.4-7.4-1.2c-2.6-0.8-5.1-2-7.4-3.4c-0.9-0.5-1.8-1.1-2.6-1.7c-4.5-3.3-8.2-7.7-10.4-12.3
			c-0.4-0.8-0.8-1.7-1.1-2.6c-0.8-2.2-1.2-4.5-1.2-6.7c0-2.2,0.4-4.3,1.2-6.1c0.3-0.7,0.7-1.3,1.1-2c2.2-3.4,5.9-5.7,10.4-6.5
			c0.8-0.2,1.7-0.3,2.6-0.3c2.3-0.1,4.8,0.1,7.4,0.7c2.6,0.6,5.1,1.6,7.4,2.9c0.9,0.5,1.8,1,2.6,1.6c4.5,3.2,8.2,7.5,10.4,12.3
			c0.4,0.9,0.8,1.8,1.1,2.7c0.8,2.4,1.2,4.8,1.2,7.2C1551.1,503.4,1550.7,505.5,1549.9,507.5z"/>
		<g>
			<g>
				<g>
					<path class="st4" d="M1395.6,261L1264,213.6c-1.2-0.4-2.4-0.3-3.4,0.2l-0.1,0l-0.3,0.2c-0.1,0.1-0.2,0.1-0.2,0.2l-9.6,6.8
						l7.9,11v120.6c0,2,1.4,3.9,3.3,4.6l117.2,43.4l8.5,12l10.5-7.4l0-0.2c0.7-0.7,1.2-1.7,1.2-2.9V265.6
						C1398.9,263.6,1397.6,261.7,1395.6,261z"/>
				</g>
			</g>
			<path class="st4" d="M1317.7,453.8l24.4-14l18.1-42.1l-18.5-7.3c0,0-9,15-9.9,17.2C1331,409.7,1317.7,453.8,1317.7,453.8z"/>
			<path class="st12" d="M1389.5,272.4v136.4c0,3-2.8,4.9-5.7,3.8l-39-14.5l-27.1,55.6l-9.1-69l-56.5-21c-2-0.7-3.3-2.6-3.3-4.6
				v-135c0-3,2.8-4.9,5.7-3.8l131.7,47.4C1388.1,268.5,1389.5,270.4,1389.5,272.4z"/>
		</g>
		<path class="st6" d="M1321.5,270.8c-0.3-0.1-0.6-0.2-0.9-0.2c0,0-0.1,0-0.1,0c-0.1,0-0.1,0-0.2,0c-24.1-5.5-44,8.6-44.3,31.5
			c-0.3,22.9,19.3,47.5,43.7,54.9c0.1,0,0.1,0,0.2,0.1c0,0,0.1,0,0.1,0c0.3,0.1,0.6,0.2,0.9,0.3c23.9,6.6,43.1-7.5,43.1-31.9
			C1364,301,1345,276.8,1321.5,270.8z M1294.8,279c0.3,0.2,0.7,0.5,1.2,0.8c-2.1,2.6-3.8,5.7-5.1,9.1l-5.1-1.3
			C1288.1,284.1,1291.1,281.2,1294.8,279z M1283.5,292l5.9,1.5c-0.7,2.9-1.2,5.9-1.4,9.1l-6.6-1.8
			C1281.7,297.7,1282.4,294.7,1283.5,292z M1281.3,305.9l6.7,1.8c0.1,2.5,0.3,5,0.7,7.5l-6.2-1.7
			C1281.9,311,1281.4,308.5,1281.3,305.9z M1289.4,328.6c-2-3.1-3.7-6.3-5.1-9.6l5.5,1.5c0.7,2.8,1.6,5.6,2.7,8.2
			C1291.2,328.7,1290.1,328.7,1289.4,328.6z M1293.5,334.1c0.5,0,1,0.1,1.6,0.2c0.5,1,1.1,2,1.7,3c0.2,0.4,0.5,0.8,0.7,1.2
			C1296.1,337,1294.8,335.6,1293.5,334.1z M1317.4,350.9c-6.1-2.7-11.8-8-16.2-15.3c-0.1-0.2-0.2-0.4-0.3-0.6
			c4.6,0.7,10.4,1.7,16.7,3.5L1317.4,350.9z M1317.5,333.2c-3.3-0.9-6.3-1.6-9.1-2.1c-4-0.8-7.5-1.3-10.5-1.7
			c-1-2.4-1.9-4.8-2.6-7.3l22.2,6.2L1317.5,333.2z M1317.6,323.2l-23.5-6.5c-0.5-2.5-0.7-5-0.8-7.6l24.4,6.5L1317.6,323.2z
			 M1317.7,310.5l-24.4-6.4c0.2-3.2,0.7-6.3,1.5-9.1l23,6L1317.7,310.5z M1317.8,295.8l-21.4-5.5c1.2-2.8,2.8-5.4,4.6-7.5
			c2.4,1.3,5.3,2.7,8.6,4.1c2.4,1,5.1,2,8.2,2.9L1317.8,295.8z M1317.9,284.6c-2.6-0.8-5-1.6-7.1-2.5c-2.3-0.9-4.4-1.9-6.2-2.8
			c3.9-3.1,8.5-4.5,13.3-4L1317.9,284.6z M1358.6,321.3l-6-1.6c-0.1-3.4-0.5-6.7-1.2-10l5.3,1.4
			C1357.8,314.4,1358.4,317.8,1358.6,321.3z M1346.8,292.6c3.1,3.8,5.8,8,7.8,12.5l-4.5-1.1c-1.1-3.9-2.6-7.7-4.4-11.3
			C1346,292.7,1346.4,292.7,1346.8,292.6z M1323.2,276.5c5,1.9,9.7,5.7,13.7,11c-5-0.1-9.6-0.7-13.8-1.7L1323.2,276.5z
			 M1323.1,291.1c5.2,1.2,11,2,17.3,1.9c1.7,3,3,6.2,4.1,9.6l-21.4-5.5L1323.1,291.1z M1323,302.3l23,6c0.7,3.3,1.2,6.7,1.3,10
			l-24.4-6.4L1323,302.3z M1322.7,352.5l0.1-12.5c5.2,1.7,10.7,3.8,16.2,6.6C1334.5,351.4,1328.8,353.4,1322.7,352.5z M1322.8,334.8
			l0-5l22.2,6.2c-0.8,2.4-1.9,4.7-3.1,6.7C1335.4,339.3,1328.8,336.7,1322.8,334.8z M1343.4,350.8c0.4-0.4,0.7-0.8,1-1.2
			c0.2,0.1,0.4,0.2,0.6,0.4C1344.5,350.3,1343.9,350.5,1343.4,350.8z M1322.9,324.6l0.1-7.5l24.4,6.5c-0.1,2.6-0.4,5.1-0.9,7.5
			L1322.9,324.6z M1349.2,347c-0.7-0.5-1.4-0.9-2.1-1.3c1.4-2.4,2.6-5.2,3.4-8.1l4.8,1.4C1353.8,342.1,1351.8,344.8,1349.2,347z
			 M1357.3,334.1l-5.5-1.5c0.4-2.4,0.7-4.9,0.8-7.5l6,1.6C1358.4,329.3,1358,331.8,1357.3,334.1z"/>
	</g>
</g>
</svg>
